<?xml version="1.0" encoding="UTF-8" standalone="no"?>
<svg
   version="1.0"
   width="63.723919mm"
   height="65.25312mm"
   viewBox="0 0 63.723919 65.25312"
   id="svg1"
   xml:space="preserve"
   xmlns="http://www.w3.org/2000/svg"
   xmlns:svg="http://www.w3.org/2000/svg"><defs
     id="defs1" /><path
     d="m 51.72421,13.520016 c -2.49999,0.29 -5.52168,0.68679 -8.54418,0.96273 -1.51125,0.13797 -3.02262,0.24553 -4.46949,0.29455 -1.44688,0.049 -2.82891,0.0395 -4.08141,-0.0574 -1.2525,-0.0969 -2.37555,-0.28111 -3.30367,-0.58084 -0.46406,-0.14986 -0.87958,-0.32876 -1.23818,-0.54002 -0.35859,-0.21125 -0.66023,-0.45456 -0.8971,-0.73432 -0.23688,-0.27977 -0.40856,-0.59597 -0.50746,-0.95136 -0.0989,-0.3554 -0.12508,-0.75042 -0.0698,-1.18856 0.0553,-0.43815 0.19177,-0.9194504 0.41755,-1.4474604 0.22578,-0.52801 0.54093,-1.10254 0.95343,-1.72754 0.4125,-0.625 0.72104,-1.21116 0.93794,-1.75803 0.21689,-0.54688 0.34238,-1.05468 0.38809,-1.52343 0.0457,-0.46874 0.0117,-0.89818 -0.0894,-1.28881 -0.10108,-0.39062 -0.26956,-0.74221 -0.493,-1.05471 -0.22344,-0.3125 -0.50183,-0.58573 -0.82321,-0.82011 -0.32139,-0.23437001 -0.68564,-0.42976001 -1.08056,-0.58601001 -0.39492,-0.15625 -0.82048,-0.27379 -1.26452,-0.35191 -0.44404,-0.0781 -0.90636,-0.11679 -1.37511,-0.11679 -0.46875,0 -0.94379,0.0387 -1.41283,0.11679 -0.46905,0.0781 -0.93226,0.19566 -1.37718,0.35191 -0.44492,0.15625 -0.87175,0.35164 -1.26814,0.58601001 -0.39639,0.23438 -0.76228,0.50761 -1.08572,0.82011 -0.32344,0.3125 -0.60437,0.66409 -0.83044,1.05471 -0.22608,0.39063 -0.39748,0.82007 -0.50178,1.28881 -0.1043,0.46875 -0.14163,0.97655 -0.0997,1.52343 0.0419,0.54687 0.16319,1.13303 0.37569,1.75803 0.2125,0.625 0.36616,1.19215 0.46509,1.70635 0.0989,0.51421 0.14291,0.9756804 0.13643,1.3890704 -0.006,0.41338 -0.0637,0.77868 -0.16744,1.10122 -0.10373,0.32255 -0.25367,0.6022 -0.44648,0.84388 -0.19281,0.24168 -0.42804,0.44519 -0.70177,0.61598 -0.27373,0.17079 -0.58627,0.30871 -0.93276,0.41858 -0.69296,0.21975 -1.52324,0.32786 -2.45824,0.3638 -0.935,0.0359 -1.9744,-1.4e-4 -3.08612,-0.0682 -1.11172,-0.0681 -2.29552,-0.16818 -3.5186499,-0.26045 -1.22312,-0.0923 -2.48559,-0.17676 -3.75481,-0.21342 -1.26921,-0.0367 -2.54512,-0.0254 -3.79511,0.0734 -0.3975,2.49999 -0.88093002,5.31195 -1.22577002,8.04757 -0.17242,1.36781 -0.31021,2.71652 -0.38551,3.99769 -0.0753,1.28117 -0.0881,2.49453 -0.0103,3.59202 0.0778,1.0975 0.24641,2.07916 0.5333,2.89595 0.14345,0.4084 0.31624,0.77551 0.52245002,1.09554 0.20621,0.32003 0.44594,0.59283 0.72192,0.81236 0.27597,0.21953 0.58829,0.38557 0.94103,0.49247 0.35273,0.10691 0.74586,0.1548 1.18235,0.13694 0.4365,-0.0179 0.91659,-0.10106 1.44384,-0.25579 0.52725,-0.15474 1.10151,-0.38097 1.72651,-0.68472 0.625,-0.30375 1.21116,-0.51078 1.75803,-0.63252 0.54688,-0.12173 1.05468,-0.15833 1.5234299,-0.12247 0.46874,0.0359 0.89818,0.14463 1.28881,0.31368 0.39062,0.16904 0.74221,0.39811 1.05471,0.67592 0.3125,0.27782 0.58573,0.60419 0.82011,0.96635 0.23437,0.36217 0.42976,0.76025 0.58601,1.18236 0.15625,0.42211 0.27379,0.86838 0.35191,1.32602 0.0781,0.45763 0.11679,0.92651 0.11679,1.39526 0,0.46875 -0.0387,0.93723 -0.11679,1.39268 -0.0781,0.45545 -0.19566,0.89795 -0.35191,1.31568 -0.15625,0.41774 -0.35164,0.81074 -0.58601,1.16634 -0.23438,0.35561 -0.50761,0.67403 -0.82011,0.9431 -0.3125,0.26906 -0.66409,0.48888 -1.05471,0.64698 -0.39063,0.15811 -0.82007,0.25426 -1.28881,0.27699 -0.4687499,0.0227 -0.9765499,-0.0283 -1.5234299,-0.16536 -0.54687,-0.13705 -1.13303,-0.35985 -1.75803,-0.6811 -0.625,-0.32125 -1.19635,-0.56383 -1.71772,-0.73381 -0.52137,-0.16997 -0.99256,-0.26719 -1.41852,-0.29817 -0.42596,-0.031 -0.8064,0.004 -1.14515,0.0997 -0.33876,0.0957 -0.63579,0.25183 -0.89555,0.46198 -0.25977,0.21016 -0.48229,0.47474 -0.67128,0.78704 -0.18899,0.31229 -0.34486002,0.67272 -0.47129002,1.07487 -0.25285,0.80429 -0.38841,1.77597 -0.44028,2.86597 -0.0519,1.09 -0.0198,2.29807 0.0636,3.57549 0.0834,1.27742 0.21807,2.6239 0.37104,3.99046 0.30593002,2.73312 0.68540002,5.54654 0.87540002,8.04654 1.24999,0.009 2.57021,0.0883 3.91707,0.20153 1.34685,0.11323 2.71996,0.25967 4.07675,0.40256 1.3567999,0.14289 2.6971999,0.28207 3.9770199,0.37982 1.27982,0.0978 2.49935,0.15448 3.61528,0.1323 1.11594,-0.0222 2.12797,-0.1231 2.9931,-0.34003 0.43257,-0.10847 0.82827,-0.24585 1.18184,-0.41703 0.35357,-0.17118 0.66543,-0.37636 0.92915,-0.6196 0.26371,-0.24325 0.47935,-0.52491 0.64233,-0.84956 0.16299,-0.32466 0.27313,-0.69201 0.32453,-1.10743 0.0514,-0.41542 0.0442,-0.8787 -0.0269,-1.39423 -0.0711,-0.51553 -0.20594,-1.08342 -0.41031,-1.70842 -0.20438,-0.625 -0.31817,-1.21116 -0.35295,-1.75804 -0.0348,-0.54687 0.01,-1.05467 0.11989,-1.52342 0.11039,-0.46875 0.28716,-0.89818 0.51831,-1.28881 0.23115,-0.39062 0.51638,-0.74221 0.84388,-1.05471 0.3275,-0.3125 0.69714,-0.58625 1.09657,-0.82062 0.39944,-0.23438 0.82894,-0.42977 1.27589,-0.58602 0.44696,-0.15625 0.91126,-0.27327 1.38131,-0.3514 0.47006,-0.0781 0.94564,-0.1173 1.41439,-0.1173 0.46875,0 0.93105,0.0392 1.37409,0.1173 0.44302,0.0781 0.86698,0.19515 1.25987,0.3514 0.39289,0.15625 0.75446,0.35164 1.0728,0.58602 0.31834,0.23437 0.59349,0.50812 0.81287,0.82062 0.21937,0.3125 0.38304,0.66409 0.47904,1.05471 0.096,0.39063 0.12414,0.82006 0.0724,1.28881 -0.0518,0.46875 -0.18373,0.97655 -0.40773,1.52342 -0.224,0.54688 -0.54004,1.13304 -0.96066,1.75804 -0.42063,0.625 -0.75456,1.19841 -1.00821,1.72392 -0.25365,0.52552 -0.42688,1.00329 -0.5271,1.43661 -0.10023,0.43332 -0.1275,0.82206 -0.0879,1.17047 0.0397,0.34841 0.14615,0.65629 0.31212,0.92707 0.16598,0.27078 0.3915,0.50443 0.67025,0.70487 0.27875,0.20044 0.61059,0.3675 0.98857,0.50488 0.75595,0.27476 1.69674,0.43088 2.7683,0.49713 1.07157,0.0662 2.27399,0.0426 3.55276,-0.0413 1.27877,-0.084 2.63406,-0.22818 4.01164,-0.40411 2.75515,-0.35188 5.59977,-0.82942 8.09976,-1.19941 -0.3425,-2.5 -0.86104,-5.21829 -1.28932,-7.82485 -0.21414,-1.30328 -0.40554,-2.57849 -0.54157,-3.78478 -0.13604,-1.20629 -0.2167,-2.34346 -0.20826,-3.37034 0.008,-1.02687 0.10577,-1.94384 0.32505,-2.70888 0.10964,-0.38252 0.24998,-0.72675 0.42478,-1.02836 0.17479,-0.3016 0.38427,-0.56062 0.63252,-0.77101 0.24824,-0.21039 0.53507,-0.37224 0.86506,-0.48111 0.32999,-0.10887 0.7029,-0.16469 1.12293,-0.16175 0.42003,0.003 0.88723,0.0646 1.4056,0.18966 0.51836,0.12507 1.08807,0.31352 1.71307,0.57102 0.625,0.2575 1.21064,0.42103 1.75752,0.5023 0.54687,0.0813 1.05467,0.0804 1.52342,0.01 0.46875,-0.0705 0.8987,-0.21081 1.28933,-0.40876 0.39062,-0.19794 0.74221,-0.45353 1.05471,-0.75447 0.3125,-0.30094 0.58573,-0.6473 0.82011,-1.02681 0.23437,-0.37951 0.42976,-0.7921 0.58601,-1.22577 0.15625,-0.43367 0.27327,-0.88844 0.3514,-1.35185 0.0781,-0.46342 0.1173,-0.9353 0.1173,-1.40405 0,-0.46875 -0.0392,-0.93423 -0.1173,-1.3839 -0.0781,-0.44966 -0.19515,-0.88367 -0.3514,-1.28984 -0.15625,-0.40617 -0.35164,-0.78467 -0.58601,-1.12293 -0.23438,-0.33826 -0.50761,-0.63618 -0.82011,-0.88212 -0.3125,-0.24593 -0.66409,-0.43975 -1.05471,-0.56895 -0.39063,-0.1292 -0.82058,-0.19386 -1.28933,-0.1819 -0.46875,0.012 -0.97655,0.1005 -1.52342,0.27802 -0.54688,0.17751 -1.13252,0.44382 -1.75752,0.81132 -0.625,0.36749 -1.19079,0.64785 -1.70222,0.84749 -0.51143,0.19963 -0.96856,0.31844 -1.37614,0.36432 -0.40759,0.0459 -0.76553,0.0188 -1.07901,-0.0749 -0.31348,-0.0938 -0.58273,-0.25406 -0.81183,-0.47336 -0.22911,-0.2193 -0.41812,-0.49766 -0.57258,-0.82837 -0.15445,-0.33072 -0.27426,-0.71403 -0.3638,-1.14205 -0.17908,-0.85606 -0.2382,-1.89242 -0.21601,-3.05305 0.0222,-1.16062 0.1257,-2.44539 0.2713,-3.7977 0.14561,-1.3523 0.33335,-2.77227 0.52452,-4.20336 0.19117,-1.43109 0.38578,-2.87303 0.54467,-4.27002 0.15888,-1.39699 0.28249,-2.74872 0.33124,-3.99872 z"
     style="fill:#f7f5fb;fill-opacity:1;stroke:#000000;stroke-width:0.1"
     id="p7" /></svg>
