<?xml version="1.0" encoding="UTF-8" standalone="no"?>
<svg
   version="1.0"
   width="227.63957mm"
   height="213.48245mm"
   viewBox="0 0 227.63957 213.48245"
   id="svg1"
   sodipodi:docname="puzzlepiece.svg"
   inkscape:version="1.3 (0e150ed6c4, 2023-07-21)"
   xml:space="preserve"
   xmlns:inkscape="http://www.inkscape.org/namespaces/inkscape"
   xmlns:sodipodi="http://sodipodi.sourceforge.net/DTD/sodipodi-0.dtd"
   xmlns="http://www.w3.org/2000/svg"
   xmlns:svg="http://www.w3.org/2000/svg"><defs
     id="defs1" /><sodipodi:namedview
     id="namedview1"
     pagecolor="#ffffff"
     bordercolor="#000000"
     borderopacity="0.25"
     inkscape:showpageshadow="2"
     inkscape:pageopacity="0.0"
     inkscape:pagecheckerboard="0"
     inkscape:deskcolor="#d1d1d1"
     inkscape:document-units="mm"
     inkscape:zoom="0.7315167"
     inkscape:cx="612.42621"
     inkscape:cy="187.96563"
     inkscape:window-width="2560"
     inkscape:window-height="1369"
     inkscape:window-x="1912"
     inkscape:window-y="-8"
     inkscape:window-maximized="1"
     inkscape:current-layer="svg1" /><g
     id="g11544"><path
       d="m 130.71547,127.22246 c 0.0481,0.0483 0.0779,0.11475 0.078,0.18862 v 0.017 c 1.3e-4,0.0739 -0.0296,0.14024 -0.0775,0.18862 2.8e-4,-2.9e-4 7.1e-4,-7e-4 0.001,-10e-4 0.0474,-0.0484 0.077,-0.11459 0.077,-0.18759 v -0.017 c -1e-4,-0.0731 -0.0299,-0.13928 -0.0775,-0.18758 -5.5e-4,-5e-4 -7.5e-4,-7.4e-4 -10e-4,-10e-4 z"
       style="fill:#c4c0d6;stroke:#000000;stroke-width:0.1"
       id="path11275" /><path
       d="m 125.60984,127.23021 c 0,0 -5.2e-4,0 -5.2e-4,0 -2.7e-4,2.4e-4 -2.5e-4,7.7e-4 -5.2e-4,0.001 -0.0479,0.0486 -0.0777,0.11492 -0.0775,0.18862 v 0.0165 c 1e-4,0.0731 0.0299,0.13929 0.0775,0.18759 5.5e-4,5e-4 7.6e-4,7.4e-4 0.001,0.001 -0.0481,-0.0483 -0.0779,-0.11475 -0.078,-0.18862 v -0.0165 c -1.3e-4,-0.0743 0.0297,-0.14108 0.078,-0.18966 z"
       style="fill:#c4c0d6;stroke:#000000;stroke-width:0.1"
       id="path11274" /><path
       d="m 130.52478,127.1434 -4.72581,0.007 c -0.0731,10e-5 -0.13928,0.0299 -0.18758,0.0775 -8.8e-4,9.6e-4 -0.001,0.002 -0.002,0.002 0.0484,-0.0486 0.11537,-0.0789 0.18965,-0.0791 z"
       style="fill:#c4c0d6;stroke:#000000;stroke-width:0.1"
       id="path11273" /><path
       d="m 110.55391,119.01314 c -0.0518,-0.0515 -0.0846,-0.12237 -0.0853,-0.20153 v -0.0341 c -6.9e-4,-0.0792 0.0308,-0.15065 0.0817,-0.20309 -4.8e-4,5e-4 -0.001,9.2e-4 -0.002,0.002 -0.0503,0.0524 -0.0813,0.12324 -0.0806,0.20154 v 0.0341 c 7.3e-4,0.0783 0.0331,0.14858 0.0842,0.19998 5.4e-4,6.3e-4 0.001,0.001 0.002,0.002 z"
       style="fill:#c4c0d6;stroke:#000000;stroke-width:0.1"
       id="path11252" /><path
       d="m 113.67723,111.55107 c 0.0454,0.045 0.0739,0.10704 0.0744,0.17621 v 0.0227 c 6e-4,0.0692 -0.0268,0.13157 -0.0713,0.17725 2.9e-4,-3.5e-4 7.2e-4,-6.9e-4 0.001,-10e-4 0.044,-0.0457 0.0713,-0.10779 0.0708,-0.17621 v -0.0227 c -6e-4,-0.0685 -0.0291,-0.13024 -0.0739,-0.17518 -5.6e-4,-3.5e-4 -7.6e-4,-6.8e-4 -0.001,-10e-4 z"
       style="fill:#c4c0d6;stroke:#000000;stroke-width:0.1"
       id="path11219" /><path
       d="m 100.76278,114.84234 c -0.1163,-0.19008 -0.16628,-0.42619 -0.14935,-0.70848 -0.0169,0.28229 0.0325,0.5184 0.14883,0.70848 z"
       style="fill:#c4c0d6;stroke:#000000;stroke-width:0.1"
       id="path11166" /><path
       d="m 102.73062,114.40723 c 0.34628,0.24088 0.48005,0.38688 0.40101,0.43769 0.0395,-0.0254 0.026,-0.0748 -0.0408,-0.14779 -0.0669,-0.073 -0.18705,-0.16946 -0.36019,-0.28991 z"
       style="fill:#c4c0d6;stroke:#000000;stroke-width:0.1"
       id="path11165" /><path
       d="m 120.46183,99.47687 c -2.4e-4,0.135772 -0.1098,0.244208 -0.24546,0.244429 0.0669,-2.33e-4 0.12744,-0.0267 0.17156,-0.07028 2.3e-4,-2.69e-4 7.6e-4,-2.46e-4 0.001,-5.16e-4 0.001,-7e-4 0.001,-0.0014 0.002,-0.0021 0.0435,-0.04417 0.0706,-0.104726 0.0708,-0.171566 z"
       style="fill:#c4c0d6;stroke:#000000;stroke-width:0.1"
       id="path11101" /><path
       d="m 111.85409,127.5997 c -0.05,-0.0504 -0.081,-0.11989 -0.0811,-0.19689 l -5.2e-4,-0.0114 c 0,0 -5.1e-4,5.2e-4 -5.1e-4,5.2e-4 l 5.1e-4,0.0114 c 1.2e-4,0.0759 0.0309,0.14452 0.0801,0.19482 5.7e-4,6.7e-4 10e-4,10e-4 0.002,0.002 z"
       style="fill:#c4c0d6;stroke:#000000;stroke-width:0.1"
       id="path10848" /><path
       d="m 113.35426,127.6798 c 0.002,0 0.005,5.1e-4 0.007,5.2e-4 l 6.28437,-0.0109 c 0.0759,-1e-4 0.14452,-0.0309 0.19482,-0.0801 l 0.002,-0.002 c -0.0504,0.0498 -0.11955,0.081 -0.19637,0.0811 z"
       style="fill:#c4c0d6;stroke:#000000;stroke-width:0.1"
       id="path10847" /><path
       d="m 113.3279,127.68032 c 0.002,-10e-6 0.005,-5.2e-4 0.007,-5.2e-4 l -1.2826,0.002 c -0.077,1.3e-4 -0.14645,-0.0306 -0.19689,-0.0806 5.1e-4,5.2e-4 9.8e-4,8.8e-4 0.002,0.002 0.0504,0.0491 0.1189,0.0796 0.19482,0.0796 z"
       style="fill:#c4c0d6;stroke:#000000;stroke-width:0.1"
       id="path10845" /><path
       d="m 103.12904,121.86568 c -0.52506,-0.0452 -0.98047,-0.16414 -1.36581,-0.35708 0.19267,0.0965 0.40286,0.17459 0.63046,0.23409 0.2276,0.0595 0.47282,0.10039 0.73535,0.12299 z"
       style="fill:#c4c0d6;stroke:#000000;stroke-width:0.1"
       id="path10827" /><path
       d="m 104.90309,120.9014 c -0.14495,0.16211 -0.30698,0.30601 -0.48679,0.4315 0.1797,-0.12541 0.34191,-0.269 0.48679,-0.43098 z"
       style="fill:#c4c0d6;stroke:#000000;stroke-width:0.1"
       id="path10826" /><path
       d="m 99.806765,127.92061 c 0.112012,0.18199 0.248975,0.32968 0.411345,0.44287 0,0 5.2e-4,0 5.2e-4,0 -0.16237,-0.11319 -0.299849,-0.26089 -0.411865,-0.44287 z"
       style="fill:#c4c0d6;stroke:#000000;stroke-width:0.1"
       id="path10824" /><path
       d="m 93.083145,128.7495 c -0.22351,-0.24702 -0.380137,-0.55679 -0.470256,-0.92966 0.04506,0.18644 0.106592,0.35714 0.185002,0.51212 0.07841,0.15496 0.173499,0.29403 0.285254,0.41754 z"
       style="fill:#c4c0d6;stroke:#000000;stroke-width:0.1"
       id="path10823" /><path
       d="m 90.745303,129.366 c -0.15489,-0.35191 -0.222942,-0.76757 -0.204122,-1.24747 -0.0094,0.23995 0.0027,0.46384 0.03669,0.6718 0.03403,0.20794 0.08999,0.39971 0.167432,0.57567 z"
       style="fill:#c4c0d6;stroke:#000000;stroke-width:0.1"
       id="path10817" /><path
       d="m 143.55241,109.3972 c 0,0 -5.1e-4,5.1e-4 -5.1e-4,5.1e-4 l 0.004,8.85734 c -0.009,0.56323 0.0259,1.12473 0.0362,1.68724 0,0 5.2e-4,0 5.2e-4,0 -0.0103,-0.56253 -0.0457,-1.12406 -0.0362,-1.68724 z"
       style="fill:#c4c0d6;stroke:#000000;stroke-width:0.1"
       id="path10766" /><path
       d="m 76.01752,119.38418 c -0.128916,0.0263 -0.221606,0.0867 -0.278536,0.18087 0,0 0,5.2e-4 0,5.2e-4 0.05693,-0.0942 0.149623,-0.15457 0.278536,-0.18087 z"
       style="fill:#c4c0d6;stroke:#000000;stroke-width:0.1"
       id="path10697" /><path
       d="m 77.451541,109.99612 c 0.0448,3.85029 0.03447,7.70167 0.03669,11.55279 0,0 5.17e-4,0 5.17e-4,0 -0.0022,-3.85133 0.0081,-7.70306 -0.03669,-11.55279 z"
       style="fill:#12076d"
       id="path10716" /><path
       d="m 76.026305,110.62554 -0.0088,3.95997 v 5.2e-4 4.79815 c 0,0 0,5.2e-4 0,5.2e-4 0.0039,0.64534 0.0046,1.29095 0.0083,1.93631 0.08874,0.0332 0.158476,0.0962 0.251664,0.12196 0.366981,0.10156 0.774877,0.132 1.210779,0.10594 -0.0022,-3.85112 0.0081,-7.7025 -0.03669,-11.55279 -0.420682,0.0982 -0.818209,0.2366 -1.174089,0.43615 -0.09303,0.0522 -0.162548,0.13498 -0.251147,0.19327 z"
       style="fill:#12076d"
       id="path10693" /><path
       d="m 108.85996,137.20945 c -0.0267,-0.12575 -0.0154,-0.22064 -0.0532,-0.35553 -0.0732,-0.26081 -0.22631,-0.58814 -0.34262,-0.8847 H 86.362104 c 0.0047,0.42711 0.01565,0.85042 0.03566,1.26813 5.179942,-0.0495 11.268577,-0.069 19.483566,-0.0176 0.88112,0.006 1.97953,-0.006 2.97863,-0.0103 z"
       style="fill:#0c0a70"
       id="path10837" /><path
       d="m 124.15411,91.657192 h 5.2e-4 c 4.19111,-0.0058 8.3771,0.0037 12.56461,0.0088 -0.0104,-0.212754 -0.0212,-0.424443 -0.0357,-0.633553 -3.23564,0.01444 -6.4716,0.02548 -9.70793,0.03152 -1.15359,0.203115 -2.31285,0.409347 -3.42098,0.577225 -0.0525,0.008 -0.096,0.0097 -0.14831,0.01757 z"
       style="fill:#0c0a70"
       id="path10790" /><path
       d="m 136.52907,135.89428 -9.33483,-0.007 c -1.18752,0.0546 -2.9753,0.0822 -5.3635,0.0822 h -4.03179 c -0.13929,0.30387 -0.31144,0.63482 -0.41083,0.90588 -0.0425,0.1159 -0.0462,0.20045 -0.0816,0.31058 1.31965,-10e-4 2.63936,-0.0185 3.95893,-0.0103 3.24682,0.0201 6.49361,0.0686 9.73997,0.14573 l 5.55057,-0.015 c -0.0124,-0.4737 -0.004,-0.93097 -0.0269,-1.4118 z"
       style="fill:#0c0a70"
       id="path10784" /><path
       d="m 147.81313,119.47255 v -10.50272 c -0.13851,-0.0657 -0.25511,-0.16465 -0.40514,-0.21187 -0.13872,-0.0437 -0.30924,-0.0307 -0.45785,-0.0574 -0.001,3.74067 1.7e-4,7.48136 -0.004,11.22205 0.15006,-0.058 0.32201,-0.0808 0.46199,-0.154 0.15004,-0.0784 0.26663,-0.20161 0.40514,-0.2961 z"
       style="fill:#0c0a70"
       id="path10759" /><path
       d="m 99.832087,91.08255 c -1.138771,-4.18e-4 -2.277567,0.0022 -3.416329,0.0016 -0.0094,0 -1.038736,-0.02132 -3.088184,-0.0646 -1.249618,-0.02447 -2.498288,0.01099 -3.746025,0.10697 -0.17408,0.01317 -0.294994,0.04081 -0.362251,0.0832 -0.06726,0.04239 -0.08086,0.09954 -0.04134,0.171049 0.05743,0.105993 0.141747,0.192026 0.242362,0.251148 0.100615,0.05912 0.217529,0.09133 0.338997,0.09043 l 24.887883,-0.04703 c -0.25136,-0.112335 -0.50315,-0.224464 -0.68471,-0.381889 -0.0688,-0.05967 -0.0907,-0.149466 -0.14883,-0.216007 -3.09232,0.002 -6.18463,0.0037 -9.27695,0.0036 -0.14922,0.09695 -0.29297,0.19924 -0.48111,0.257349 -0.26922,0.0832 -0.57662,0.128907 -0.91881,0.144177 -0.68436,0.0305 -1.50646,-0.06121 -2.43396,-0.221175 -0.24589,-0.04242 -0.61064,-0.127783 -0.870742,-0.178801 z"
       style="fill:#0c0a70"
       id="path10724" /><path
       d="m 99.832087,91.08255 c 0.260103,0.05102 0.624853,0.136383 0.870743,0.178801 0.9275,0.15997 1.74959,0.251675 2.43396,0.221175 0.34219,-0.01527 0.64959,-0.06098 0.91881,-0.144177 0.18814,-0.05811 0.33189,-0.1604 0.48111,-0.257349 -1.56821,-4.8e-5 -3.13642,0.0021 -4.704623,0.0016 z"
       style="fill:#0c0a70"
       id="path10723" /><path
       d="m 83.364875,110.79608 -0.0026,8.25272 c 0.177122,-0.0572 0.383916,-0.15667 0.544669,-0.19017 0.285011,-0.0594 0.515752,-0.0397 0.752409,-0.0284 l 0.0098,-8.15041 c -0.213929,0.0535 -0.409322,0.13228 -0.648539,0.15142 -0.198387,0.0159 -0.439213,-0.0262 -0.655774,-0.0351 z"
       style="fill:#0c0a70"
       id="path10720" /><path
       d="m 104.80904,82.094985 c 3.70349,-0.02708 7.40698,-0.0024 11.11043,0.0088 -0.014,-0.07066 10e-4,-0.157023 -0.017,-0.225309 -0.10381,-0.390624 -0.2746,-0.742216 -0.50023,-1.054716 -0.22562,-0.3125 -0.50637,-0.58573 -0.8294,-0.820105 -0.32302,-0.234375 -0.68868,-0.429761 -1.08469,-0.586011 -0.39602,-0.156249 -0.822,-0.273791 -1.26659,-0.351916 -0.44459,-0.07813 -0.90739,-0.116789 -1.37614,-0.116789 -0.46875,0 -0.94383,0.03866 -1.41232,0.116789 -0.4685,0.07813 -0.93076,0.195667 -1.37459,0.351916 -0.44382,0.15625 -0.86927,0.351636 -1.26401,0.586011 -0.39475,0.234375 -0.75879,0.507605 -1.08004,0.820105 -0.32125,0.3125 -0.59934,0.664092 -0.82268,1.054716 -0.0375,0.06561 -0.0483,0.14872 -0.0827,0.216524 z"
       style="fill:#7ccfff"
       id="path10731" /><path
       d="m 105.19868,88.297191 c 2.8372,0.0047 5.67443,0.01151 8.51163,0.01033 0.0243,-0.06 0.0222,-0.103161 0.0491,-0.164848 0.2208,-0.505922 0.53094,-1.068955 0.93844,-1.693953 0.40813,-0.625 0.71246,-1.211159 0.92553,-1.758033 0.21306,-0.546874 0.33482,-1.054671 0.37724,-1.523421 0.0201,-0.22253 -0.0323,-0.406985 -0.0465,-0.611849 -0.53206,0.0073 -1.45252,0.01989 -4.30258,0.05994 -1.21951,0.01882 -2.4404,0.01428 -3.66179,-0.01395 -1.57514,-0.03454 -2.6182,-0.04885 -3.35484,-0.05168 -0.078,0.206599 -0.18776,0.392939 -0.23616,0.617533 -0.10102,0.46875 -0.13459,0.976547 -0.0889,1.523421 0.0457,0.546874 0.1707,1.133033 0.38758,1.758033 0.2175,0.624998 0.37617,1.178994 0.48007,1.668632 0.0146,0.06865 0.009,0.113701 0.0212,0.179834 z"
       style="fill:#7ccfff"
       id="path10728" /><path
       d="m 104.53671,91.081 c 3.09232,9.4e-5 6.18462,-0.0016 9.27695,-0.0036 -0.14584,-0.167042 -0.29892,-0.329388 -0.3731,-0.542603 -0.10373,-0.29815 -0.13466,-0.643277 -0.0842,-1.040247 0.0214,-0.168441 0.11976,-0.386066 0.17105,-0.573608 l -8.25324,0.01033 c 0.0132,0.150066 0.0559,0.334318 0.0553,0.468706 -0.002,0.367767 -0.0541,0.67801 -0.15296,0.93741 -0.0989,0.25941 -0.24441,0.46799 -0.43253,0.63252 -0.0567,0.04955 -0.14292,0.06932 -0.20723,0.111104 z"
       style="fill:#7ccfff"
       id="path10725" /><path
       d="m 84.669188,110.6798 -0.0098,8.15041 c 0.09736,0.005 0.219893,-0.0274 0.309542,-0.0114 0.30758,0.0549 0.570754,0.17549 0.794784,0.35553 0.224019,0.18004 0.409089,0.41943 0.560689,0.71107 0.15159,0.29164 0.269885,0.63556 0.360185,1.02526 0.09031,0.3897 0.152685,0.82541 0.192753,1.29966 0.04007,0.47426 0.05782,0.98706 0.05891,1.53221 0.002,1.09031 -0.06273,2.30901 -0.149862,3.60185 -0.08713,1.29284 -0.19664,2.65983 -0.28422,4.04678 -0.0876,1.38695 -0.153009,2.79349 -0.151929,4.16615 1.02e-4,0.13948 0.01036,0.27315 0.01189,0.41187 h 22.10201 c -0.10395,-0.26507 -0.16662,-0.49568 -0.30644,-0.79065 -0.29687,-0.625 -0.49716,-1.21065 -0.61288,-1.75752 -0.11572,-0.54688 -0.14695,-1.05467 -0.10594,-1.52342 0.041,-0.46875 0.15429,-0.89871 0.32763,-1.28933 0.17334,-0.39063 0.40656,-0.74221 0.68781,-1.05471 0.28125,-0.3125 0.61039,-0.58574 0.97514,-0.82011 0.36473,-0.23438 0.76525,-0.42976 1.18907,-0.58601 0.42383,-0.15625 0.87113,-0.27328 1.32963,-0.3514 0.45289,-0.0772 0.91672,-0.11481 1.37977,-0.11575 l -1.2759,0.002 c -0.0759,2e-5 -0.14443,-0.0305 -0.19482,-0.0796 -5.6e-4,-6.7e-4 -10e-4,-10e-4 -0.001,-0.002 -2.7e-4,-2.7e-4 -7.6e-4,-2.4e-4 -0.001,-5.2e-4 -2.7e-4,-2.7e-4 -2.4e-4,-7.6e-4 -5.1e-4,-0.001 -5.1e-4,-5.2e-4 -9.9e-4,-8.8e-4 -0.002,-0.002 -0.0492,-0.0503 -0.08,-0.11889 -0.0801,-0.19482 l -5.2e-4,-0.0114 c 0,0 5.2e-4,-5.2e-4 5.2e-4,-5.2e-4 1.6e-4,-0.0756 0.0301,-0.14407 0.0791,-0.1943 3.3e-4,-4.2e-4 7.1e-4,-6.8e-4 10e-4,-10e-4 6.5e-4,-6.7e-4 3.7e-4,-0.002 0.001,-0.003 5.4e-4,-5.4e-4 0.001,-4.9e-4 0.002,-0.001 1.6e-4,-1.6e-4 3.5e-4,-3.6e-4 5.1e-4,-5.2e-4 0.0502,-0.0492 0.11869,-0.0798 0.19482,-0.0801 0,0 5.2e-4,0 5.2e-4,0 l 7.59384,-0.0134 c 0.0766,-1.3e-4 0.14536,0.0306 0.19586,0.0801 0,0 5.1e-4,5.1e-4 5.1e-4,5.1e-4 3.9e-4,3.9e-4 0.001,1.4e-4 0.002,5.2e-4 2.3e-4,2.3e-4 -2.4e-4,8e-4 0,10e-4 2.6e-4,2.7e-4 2.5e-4,7.7e-4 5.1e-4,0.001 0.0498,0.0503 0.0815,0.1192 0.0816,0.19585 v 5.2e-4 0.0109 c 0,0 0,5.2e-4 0,5.2e-4 3e-5,0.0759 -0.0305,0.14443 -0.0796,0.19482 l -0.001,0.001 c -3.9e-4,3.9e-4 -1.4e-4,0.001 -5.2e-4,0.002 -3.9e-4,3.9e-4 -0.001,1.4e-4 -0.002,5.2e-4 l -0.002,0.002 c -0.0503,0.0492 -0.1189,0.08 -0.19482,0.0801 l -6.28437,0.0109 c 0.46315,9.2e-4 0.92541,0.0386 1.37459,0.11575 0.45459,0.0781 0.89605,0.19515 1.31207,0.3514 0.41601,0.15625 0.80659,0.35163 1.15962,0.58601 0.35302,0.23437 0.66868,0.50761 0.93431,0.82011 0.26562,0.3125 0.48129,0.66408 0.6351,1.05471 0.15381,0.39062 0.24545,0.82058 0.26303,1.28933 0.0176,0.46875 -0.0388,0.97654 -0.1819,1.52342 -0.14307,0.54687 -0.37261,1.13252 -0.70073,1.75752 -0.15321,0.29127 -0.23706,0.52542 -0.35863,0.79065 h 4.03179 c 2.3882,0 4.17598,-0.0276 5.3635,-0.0822 l -3.10782,-0.12402 c -0.0789,-0.003 -0.14276,-0.0666 -0.14676,-0.14676 -0.11292,-1.96477 -0.15079,-3.93843 -0.11369,-5.92109 0.0371,-1.98266 0.14916,-3.97431 0.33641,-5.97483 l -20.98528,0.0393 c -0.10477,-2.9e-4 -0.18981,0.0859 -0.18966,0.19224 v 2.69596 c 1.4e-4,0.12224 0.10104,0.22004 0.22325,0.21704 1.54508,-0.0263 3.07038,10e-4 4.57594,0.0822 0.28324,0.0151 0.51805,0.0923 0.70487,0.23202 0.18682,0.13968 0.32566,0.34175 0.416,0.60617 0.0838,0.2437 0.0941,0.40134 0.031,0.47335 -0.0631,0.072 -0.19944,0.0584 -0.40928,-0.0413 -0.0697,-0.033 -0.13797,-0.0993 -0.19482,-0.18913 -0.11009,-0.17126 -0.2477,-0.29928 -0.41238,-0.38396 -0.16468,-0.0847 -0.35643,-0.12602 -0.57567,-0.12402 -1.40394,0.0151 -2.80437,-0.0293 -4.20078,-0.13281 -0.0748,-0.006 -0.13948,0.053 -0.14108,0.12971 -0.0104,0.542 -0.10631,1.08225 -0.28784,1.62057 -0.18153,0.53832 -0.44863,1.07473 -0.8015,1.6092 -0.0395,0.0583 -0.0504,0.10217 -0.0326,0.13178 0.0178,0.0296 0.0642,0.045 0.13953,0.046 l 1.30431,0.0196 c 0.0801,1.3e-4 0.16256,0.0578 0.21446,0.14986 0.0781,0.13833 0.10766,0.25795 0.0884,0.35863 -0.0193,0.10069 -0.0874,0.18242 -0.20412,0.24547 -0.10916,0.0583 -0.27768,0.0879 -0.5054,0.0899 -1.99299,0.0172 -3.984751,0.0242 -5.975859,0.0202 -0.609754,0 -1.425495,0.0245 -2.447396,0.0734 -0.629514,0.032 -1.148473,0.0417 -1.556494,0.0289 -0.408021,-0.0128 -0.705105,-0.048 -0.891419,-0.10542 -0.49119,-0.15009 -0.921303,-0.35108 -1.29036,-0.60255 -0.369058,-0.25147 -0.677023,-0.55354 -0.923975,-0.9064 -0.246952,-0.35287 -0.432715,-0.75653 -0.557588,-1.21078 -0.124874,-0.45426 -0.188898,-0.95899 -0.19172,-1.51464 -0.04705,-10.15126 -0.02382,-17.34989 0.07028,-21.59558 0.0047,-0.20748 0.03374,-0.40839 0.08682,-0.60255 0.05308,-0.19415 0.130084,-0.38139 0.231511,-0.56224 0.202854,-0.36169 0.502501,-0.69698 0.898653,-1.00562 0.335929,-0.26065 0.720035,-0.45609 1.152384,-0.58653 0.432349,-0.13043 0.912943,-0.19585 1.441773,-0.19585 8.82243,-0.002 17.64399,-0.009 26.46453,-0.0222 0,0 5.1e-4,0 5.1e-4,0 -0.0734,-0.0583 -0.10808,-0.11229 -0.10387,-0.16175 0.004,-0.0495 0.0473,-0.0944 0.1292,-0.13487 0.0602,-0.0301 0.13929,-0.0481 0.23719,-0.0537 1.12541,-0.0621 2.4146,-0.0487 3.86746,0.0398 0.13844,0.008 0.26624,-0.0424 0.35967,-0.12919 0.0934,-0.0868 0.1525,-0.20992 0.154,-0.34779 0.0189,-1.96664 0.0229,-4.029648 0.0139,-6.18825 -9.4e-4,-0.146792 -0.0357,-0.299313 -0.10387,-0.457336 -0.0682,-0.158023 -0.1699,-0.32155 -0.30541,-0.490926 -0.96732,-0.02447 -1.9832,-0.03669 -3.04839,-0.03669 -10.32816,-0.0019 -20.655797,-0.0031 -30.98208,-0.0031 -0.09597,-1.68e-4 -0.182355,-0.03869 -0.234095,-0.104386 -0.0781,-0.102567 -0.107637,-0.192682 -0.08888,-0.270268 0.01875,-0.07759 0.0858,-0.142642 0.201538,-0.195337 0.09598,-0.04328 0.228532,-0.06511 0.397909,-0.06511 11.363238,0.0057 22.727888,0.0018 34.093008,-0.01137 l 0.13539,-2.73265 -0.74775,0.0015 c -1.39588,0.208924 -2.73933,0.380145 -3.95377,0.465088 -0.63,0.04405 -1.22763,0.06672 -1.7849,0.06253 -0.55727,-0.0042 -1.07418,-0.03527 -1.54254,-0.09767 -0.46835,-0.0624 -0.8885,-0.156441 -1.25161,-0.287321 -0.0902,-0.03251 -0.14327,-0.08897 -0.22634,-0.12609 l -24.887887,0.04703 c -0.121468,9e-4 -0.238382,-0.03131 -0.338997,-0.09043 -0.100615,-0.05912 -0.184932,-0.145155 -0.242362,-0.251148 -0.03952,-0.07151 -0.02592,-0.128659 0.04134,-0.171049 0.06726,-0.04239 0.188171,-0.07003 0.362251,-0.0832 1.247737,-0.09598 2.496407,-0.131435 3.746025,-0.10697 2.049448,0.04328 3.078774,0.0646 3.088184,0.0646 1.138762,6.93e-4 2.277558,-0.002 3.416329,-0.0016 -1.70209,-0.333854 -3.58397,-0.79213 -5.698361,-1.168921 -1.218748,-0.217189 -2.477605,-0.394696 -3.744474,-0.478523 -0.633439,-0.04192 -1.268945,-0.0603 -1.902209,-0.04858 -0.633265,0.01172 -1.264291,0.05354 -1.889291,0.132291 0.335,2.499998 0.767803,5.271085 1.072803,7.965922 0.1525,1.347419 0.273163,2.675604 0.333313,3.941364 0.0602,1.26576 0.05976,2.46901 -0.02894,3.56619 -0.04435,0.54859 -0.110911,1.07099 -0.203088,1.56114 -0.09218,0.49016 -0.209974,0.94806 -0.357084,1.36891 -0.14711,0.42084 -0.323178,0.80446 -0.532268,1.14515 -0.209079,0.34068 -0.451034,0.63867 -0.729154,0.88832 -0.27813,0.24965 -0.592473,0.45118 -0.946712,0.59893 -0.160508,0.067 -0.360186,0.0807 -0.537435,0.12506 z m 9.786483,-13.273088 c 0.09368,-0.0016 0.163456,0.03513 0.209289,0.110588 0.04583,0.07546 0.06773,0.189659 0.06563,0.342098 -0.0075,0.794184 -0.003,1.587397 0.01395,2.379702 0.0015,0.0794 0.06478,0.14386 0.144177,0.14676 0.199487,0.006 0.397005,0.0243 0.592729,0.0563 0.126091,0.0188 0.223188,0.0677 0.290938,0.14676 0.09033,0.10162 0.107163,0.18138 0.05064,0.23926 -0.05652,0.0579 -0.18639,0.0939 -0.38964,0.108 -0.368864,0.0282 -0.677624,0.0352 -0.926042,0.0202 -0.09755,-0.005 -0.184577,-0.0482 -0.24753,-0.11627 -0.06295,-0.0681 -0.101838,-0.16059 -0.102319,-0.262 l -0.03669,-2.913515 c 3.09e-4,-0.09282 0.04582,-0.172658 0.115755,-0.203088 0.08375,-0.03529 0.156649,-0.05368 0.219109,-0.05478 z"
       style="fill:#7ccfff"
       id="path10722" /><path
       d="m 104.63489,82.549738 c 0.73665,0.0028 1.77971,0.01713 3.35484,0.05168 1.22139,0.02823 2.44228,0.03277 3.66179,0.01395 2.85006,-0.04005 3.77052,-0.05268 4.30258,-0.05994 -0.0105,-0.151233 -0.007,-0.309995 -0.0346,-0.451652 -3.70345,-0.0112 -7.40694,-0.03587 -11.11043,-0.0088 -0.0722,0.142457 -0.11668,0.302586 -0.17415,0.454753 z"
       style="fill:#08146d"
       id="path10730" /><path
       d="m 105.27413,88.93126 8.25324,-0.01033 c 0.0549,-0.200553 0.0925,-0.390104 0.18294,-0.613399 -2.8372,0.0012 -5.67443,-0.0057 -8.51163,-0.01033 0.0439,0.233207 0.0575,0.431035 0.0755,0.634069 z"
       style="fill:#08146d"
       id="path10727" /><path
       d="m 124.01872,94.389842 c 4.25986,0.0027 8.51973,0.01183 12.77958,0.02067 0.004,-0.299728 0.0257,-0.607907 0.0248,-0.904337 -0.002,-0.64142 -0.0735,-1.222233 -0.10387,-1.840198 -4.18751,-0.0051 -8.3735,-0.01462 -12.56461,-0.0088 h -5.2e-4 z"
       style="fill:#b3e3ff"
       id="path10789" /><path
       d="m 119.4314,103.00017 c 0.78837,0.0659 1.57565,0.0884 2.36213,0.0677 0,0 5.2e-4,0 5.2e-4,0 1.43903,-0.0376 2.17055,-0.0568 2.19315,-0.0568 h 5.2e-4 11.46338 c 0,0 5.1e-4,0 5.1e-4,0 0.37482,2e-5 0.69673,0.0635 1.02992,0.11317 0.0116,-0.41888 -0.002,-0.78499 0.0165,-1.2206 0.0303,-0.7103 0.0717,-1.47098 0.11059,-2.212265 h -7.17269 c -0.1126,0 -0.2036,-0.09049 -0.2036,-0.203088 v -0.08475 c 0,-0.112598 0.091,-0.203088 0.2036,-0.203088 h 7.19749 c 0.0257,-0.490288 0.049,-0.958138 0.0729,-1.454175 0.0435,-0.906695 0.0542,-1.807523 0.0744,-2.710945 l -13.10101,0.04082 c 0.13551,0.169376 0.2372,0.332903 0.30541,0.490926 0.0682,0.158023 0.10293,0.310544 0.10387,0.457336 0.009,2.158602 0.005,4.221609 -0.0139,6.188249 -0.002,0.13787 -0.0606,0.261 -0.154,0.34779 -0.0934,0.0868 -0.22123,0.13724 -0.35967,0.12919 -1.45286,-0.0884 -2.74205,-0.1019 -3.86746,-0.0398 -0.0979,0.006 -0.17697,0.0236 -0.23719,0.0537 -0.0819,0.0405 -0.12498,0.0854 -0.1292,0.13487 -0.004,0.0495 0.0305,0.10341 0.10387,0.16175 z"
       style="fill:#b3e3ff"
       id="path10787" /><path
       d="m 143.00309,109.65971 c -0.0581,0.0337 -0.10655,0.0435 -0.16536,0.0791 -0.625,0.3775 -1.19158,0.66773 -1.70429,0.87798 -0.27158,0.11138 -0.49005,0.14287 -0.73226,0.21033 0.005,2.11184 0.008,4.22364 -0.006,6.33553 0,0.0188 0.0103,0.37074 0.031,1.05575 0.008,0.30339 -0.0373,0.59803 -0.0651,0.89555 0.25154,0.0255 0.48118,0.0232 0.76119,0.0847 0.52008,0.11445 1.09066,0.29252 1.71566,0.54002 0.0588,0.0233 0.10726,0.0228 0.16536,0.0444 z"
       style="fill:#b3e3ff"
       id="path10772" /><path
       d="m 146.94962,108.7006 c -0.26973,-0.0484 -0.52885,-0.11641 -0.83096,-0.10387 -0.46875,0.0195 -0.97654,0.11603 -1.52342,0.3023 -0.32447,0.11052 -0.69093,0.32202 -1.04283,0.49816 l 0.004,8.85786 c -0.009,0.56318 0.0258,1.12471 0.0362,1.68724 0.33728,0.0966 0.69058,0.2289 1.00252,0.27026 0.54688,0.0725 1.05467,0.0636 1.52342,-0.0145 0.30061,-0.05 0.55827,-0.1717 0.82683,-0.27543 0.004,-3.74064 0.003,-7.48132 0.004,-11.22205 z"
       style="fill:#b3e3ff"
       id="path10764" /><path
       d="m 146.95014,108.7006 c 0,0 -5.2e-4,0 -5.2e-4,0 -0.001,3.74073 1.4e-4,7.48141 -0.004,11.22205 0,0 5.1e-4,0 5.1e-4,0 0.004,-3.74069 0.003,-7.48138 0.004,-11.22205 z"
       style="fill:#b3e3ff"
       id="path10762" /><path
       d="m 123.67972,95.076105 13.10101,-0.04082 c 0.005,-0.208208 0.0149,-0.417695 0.0176,-0.624769 -4.25985,-0.0088 -8.51972,-0.01792 -12.77958,-0.02067 -11.36512,0.01317 -22.72976,0.01702 -34.093005,0.01137 -0.169377,0 -0.301929,0.02183 -0.397909,0.06511 -0.11574,0.05269 -0.182784,0.117751 -0.201538,0.195337 -0.01875,0.07759 0.01078,0.167701 0.08888,0.270268 0.05174,0.0657 0.138121,0.104218 0.234095,0.104386 10.326283,0 20.653927,0.0012 30.982087,0.0031 1.06519,0 2.08107,0.01222 3.04839,0.03669 z"
       style="fill:#040b6b"
       id="path10788" /><path
       d="m 94.455671,97.406712 c -0.06246,0.0011 -0.135361,0.01949 -0.219109,0.05478 -0.06994,0.03043 -0.115446,0.110264 -0.115755,0.203088 l 0.03669,2.91352 c 4.81e-4,0.10141 0.03937,0.19393 0.102319,0.262 0.06295,0.0681 0.149976,0.11168 0.24753,0.11627 0.248418,0.0151 0.557178,0.008 0.926042,-0.0202 0.20325,-0.0141 0.33312,-0.0501 0.38964,-0.108 0.05652,-0.0579 0.03969,-0.13764 -0.05064,-0.23927 -0.06775,-0.079 -0.164847,-0.12794 -0.290938,-0.14676 -0.195724,-0.032 -0.393242,-0.0507 -0.592729,-0.0563 -0.0794,-0.003 -0.142713,-0.0673 -0.144177,-0.14676 -0.01694,-0.7923 -0.02148,-1.585513 -0.01395,-2.379697 0.0021,-0.152439 -0.0198,-0.26664 -0.06563,-0.342098 -0.04583,-0.07546 -0.115606,-0.112176 -0.209289,-0.110588 z"
       style="fill:#121b7d"
       id="path11092" /><path
       d="m 120.21637,99.219521 c 0.13606,2.38e-4 0.2457,0.10992 0.24546,0.24598 10e-5,-0.06745 -0.0274,-0.128149 -0.0713,-0.172599 -2.7e-4,-2.38e-4 -2.5e-4,-7.63e-4 -5.2e-4,-0.001 -0.001,-7.09e-4 -0.001,-8.98e-4 -0.002,-0.0016 -0.0443,-0.04345 -0.10466,-0.07076 -0.17156,-0.0708 z"
       style="fill:#090379"
       id="path11100" /><path
       d="m 98.174307,99.181281 c -0.13586,-8e-6 -0.245227,0.10903 -0.245463,0.244946 v 0.01137 c -2.38e-4,0.135916 0.109084,0.245512 0.244946,0.24598 0,0 5.17e-4,0 5.17e-4,0 l 22.041033,0.03824 h 5.1e-4 c 0,0 5.2e-4,-5.17e-4 5.2e-4,-5.17e-4 0.13566,-2.21e-4 0.24522,-0.108657 0.24546,-0.244429 v -0.01137 c 2.4e-4,-0.13606 -0.1094,-0.245742 -0.24546,-0.24598 l -22.041547,-0.03824 z"
       style="fill:#090379"
       id="path11099" /><path
       d="m 136.63345,99.200401 h -7.19749 c -0.1126,0 -0.2036,0.09049 -0.2036,0.203088 v 0.08475 c 0,0.112601 0.091,0.203088 0.2036,0.203088 h 7.17269 c 0.009,-0.164504 0.0161,-0.325402 0.0248,-0.490926 z"
       style="fill:#180b81"
       id="path10798" /><path
       d="m 76.01752,119.3847 c -0.128913,0.0263 -0.221607,0.0867 -0.278536,0.18087 -0.05676,0.0941 -0.07808,0.2218 -0.06305,0.38343 0,0 0,5.2e-4 0,5.2e-4 0.02351,0.23822 -0.03845,0.66682 -0.121956,1.14257 0.150781,0.0866 0.305392,0.1667 0.471806,0.22892 -0.0036,-0.64536 -0.0044,-1.29097 -0.0083,-1.93631 z"
       style="fill:#77cfff"
       id="path10698" /><path
       d="m 76.026305,110.62554 c -0.283427,0.18647 -0.565493,0.37593 -0.803569,0.61805 -0.02698,0.0274 -0.0444,0.0644 -0.0708,0.0925 0.09893,0.21747 0.279505,0.52387 0.340548,0.70022 0,0 0,5.2e-4 0,5.2e-4 0.125991,0.36681 0.20457,0.73328 0.235128,1.09915 0,0 0,5.2e-4 0,5.2e-4 0.03051,0.36587 0.01322,0.73113 -0.05168,1.09606 0,0 0,5.2e-4 0,5.2e-4 -0.0337,0.19151 -0.02223,0.31693 0.03462,0.37568 0.05693,0.0588 0.159224,0.0511 0.306958,-0.0233 z"
       style="fill:#77cfff"
       id="path10694" /><path
       d="m 147.81313,119.47255 c 0.22212,-0.15153 0.45711,-0.28648 0.64958,-0.47491 0.3125,-0.30594 0.58573,-0.65699 0.8201,-1.04025 0.23438,-0.38326 0.42976,-0.79889 0.58601,-1.23506 0.15625,-0.43618 0.27328,-0.89288 0.3514,-1.35754 0.0781,-0.46467 0.11731,-0.93737 0.11731,-1.40612 0,-0.46875 -0.0392,-0.9334 -0.11731,-1.38182 -0.0781,-0.44842 -0.19515,-0.88049 -0.3514,-1.28416 -0.15625,-0.40367 -0.35163,-0.77912 -0.58601,-1.11363 -0.23437,-0.33452 -0.5076,-0.62827 -0.8201,-0.8692 -0.19248,-0.1484 -0.42745,-0.23462 -0.64958,-0.34003 z"
       style="fill:#b3e3ff"
       id="path10760" /><path
       d="m 75.151939,111.33609 c 0,0 -5.16e-4,5.2e-4 -5.16e-4,5.2e-4 0.09891,0.21742 0.280017,0.52338 0.341064,0.6997 -0.06104,-0.17635 -0.241617,-0.48275 -0.340548,-0.70022 z"
       style="fill:#3c93fd"
       id="path10711" /><path
       d="m 75.553982,121.09209 c 0.0835,-0.47575 0.145465,-0.90435 0.121956,-1.14257 0.02346,0.23833 -0.03891,0.66668 -0.122473,1.14257 z"
       style="fill:#3c93fd"
       id="path10699" /><path
       d="m 76.01752,114.58603 c -0.147733,0.0743 -0.250029,0.0821 -0.306958,0.0233 0,0 0,-5.2e-4 0,-5.2e-4 -0.05685,-0.0588 -0.06833,-0.18417 -0.03462,-0.37569 0,0 0,-5.2e-4 0,-5.2e-4 0.0649,-0.36492 0.08219,-0.73018 0.05168,-1.09605 0,0 0,-5.2e-4 0,-5.2e-4 -0.03056,-0.36588 -0.109137,-0.73234 -0.235128,-1.09916 0,0 0,-5.2e-4 0,-5.2e-4 -0.06105,-0.17631 -0.242153,-0.48228 -0.341064,-0.69969 -0.279206,0.29701 -0.535296,0.62012 -0.749309,0.97823 -0.225981,0.37812 -0.410986,0.7874 -0.564306,1.21233 0.07886,0.2839 0.158442,0.56767 0.21394,0.85679 0.07552,0.39345 0.129512,0.79207 0.161747,1.19528 0.06447,0.8064 0.04201,1.6319 -0.06666,2.47736 -0.04601,0.35793 -0.171008,0.73372 -0.248047,1.09864 0.143633,0.33445 0.301893,0.65809 0.503328,0.93793 0.23437,0.3256 0.508122,0.60913 0.820622,0.83819 0.09802,0.0718 0.225013,0.1 0.330729,0.16072 0.08356,-0.47589 0.145935,-0.90424 0.122473,-1.14257 0,0 0,-5.2e-4 0,-5.2e-4 -0.01503,-0.16163 0.0063,-0.28931 0.06305,-0.38343 0,0 0,-5.2e-4 0,-5.2e-4 0.05693,-0.0942 0.14962,-0.15452 0.278536,-0.18087 z"
       style="fill:#3c93fd"
       id="path10696" /><path
       d="m 76.01752,114.58551 c -0.147734,0.0743 -0.250028,0.0821 -0.306958,0.0233 0,0 0,5.2e-4 0,5.2e-4 0.05693,0.0588 0.159225,0.0511 0.306958,-0.0233 z"
       style="fill:#3c93fd"
       id="path10695" /><path
       d="m 139.02297,119.15887 c 0.22291,-0.0462 0.43023,-0.11241 0.68523,-0.1173 0.1956,-0.004 0.43667,0.0506 0.65216,0.0723 0.0278,-0.29758 0.0736,-0.59216 0.0651,-0.89555 -0.0207,-0.68503 -0.031,-1.03693 -0.031,-1.05575 0.0145,-2.11172 0.0109,-4.22335 0.006,-6.33501 -0.21484,0.0598 -0.45652,0.15979 -0.64958,0.18655 -0.23233,0.0322 -0.41564,-0.0104 -0.61805,-0.0238 0.0167,0.66213 0.0579,1.32527 0.063,1.98696 0.0141,1.81934 -0.0155,3.63681 -0.0889,5.45289 -0.0112,0.28035 -0.0555,0.48709 -0.0842,0.72864 z"
       style="fill:#100773"
       id="path10807" /><path
       d="m 140.40118,110.82708 c 0,0 -5.1e-4,5.2e-4 -5.1e-4,5.2e-4 0.005,2.11166 0.008,4.22329 -0.006,6.33501 0,0.0188 0.0103,0.37072 0.031,1.05575 0.008,0.30339 -0.0373,0.59797 -0.0651,0.89555 0,0 5.2e-4,0 5.2e-4,0 0.0278,-0.29752 0.0736,-0.59216 0.0651,-0.89555 -0.0207,-0.68501 -0.031,-1.03695 -0.031,-1.05575 0.0143,-2.11189 0.0108,-4.22369 0.006,-6.33553 z"
       style="fill:#100773"
       id="path10801" /><path
       d="m 124.16238,123.72035 6.39961,0.0341 c 0.23936,-0.039 0.47422,-0.0559 0.70642,-0.061 0.0226,-5e-4 0.0462,-0.006 0.0687,-0.006 0.01,-7e-5 0.0194,0.003 0.0294,0.003 0.3161,-1.1e-4 0.62595,0.0284 0.92863,0.092 0.0886,0.0176 0.1525,0.0897 0.15244,0.17208 l 0.0284,1.71101 0.11317,1.82366 c 0.0101,0.13823 0.11627,0.25366 0.25941,0.28216 0.20043,0.0395 0.34958,0.0298 0.447,-0.0295 0.0974,-0.0592 0.14311,-0.16799 0.13746,-0.32608 -0.009,-0.24465 -0.0134,-0.37652 -0.0114,-0.39532 0.0828,-1.05766 0.0867,-2.11528 0.0114,-3.17294 -0.007,-0.0766 0.0529,-0.14317 0.12971,-0.14417 0.65304,-0.0188 1.30603,-0.029 1.95905,-0.031 0.22273,-4.2e-4 0.4155,-0.0504 0.62529,-0.0724 0.0264,-0.22937 0.0414,-0.47456 0.0775,-0.69039 0.0345,-0.20605 0.0923,-0.37981 0.13643,-0.57258 -0.007,0.001 -0.011,0.004 -0.0181,0.005 -0.30816,0.0512 -0.66264,0.0776 -1.0635,0.0796 -3.58888,0.017 -7.1779,0.0517 -10.76678,0.10439 l -21.73666,0.0935 -1.26504,-0.12712 c -0.0541,-0.006 -0.1008,0.0307 -0.0956,0.076 0.0988,1.04355 0.15477,2.07022 0.16795,3.08043 0.0132,1.01022 -0.0164,2.00397 -0.0889,2.9807 -0.0922,0.35193 -0.22846,0.66008 -0.40876,0.92449 -0.1803,0.26441 -0.40465,0.48507 -0.67282,0.66198 -0.18255,0.12044 -0.418777,0.21685 -0.709005,0.28887 -0.290228,0.072 -0.634462,0.11964 -1.032495,0.14314 -1.652356,0.096 -3.305666,0.12038 -4.959904,0.0734 -0.530711,-0.0151 -0.982989,-0.0638 -1.356506,-0.14572 -0.373518,-0.0819 -0.668276,-0.19704 -0.884701,-0.34572 -0.164201,-0.11198 -0.306529,-0.23999 -0.427364,-0.38396 -0.120835,-0.14396 -0.220211,-0.30411 -0.297656,-0.48007 -0.07744,-0.17596 -0.133402,-0.36773 -0.167432,-0.57567 -0.03403,-0.20796 -0.0461,-0.43185 -0.03669,-0.6718 0.01694,-0.43097 0.02584,-0.65489 0.02584,-0.67179 -0.0038,-1.97794 0.02715,-3.96254 0.09302,-5.95364 0.05081,-4.91756 0.02514,-9.84081 -0.07648,-14.76964 -0.0075,-0.3604 0.0125,-0.6717 0.06046,-0.9338 0.04796,-0.26209 0.123869,-0.47499 0.227376,-0.63872 0.168435,-0.26629 0.38634,-0.46577 0.65319,-0.59893 0.26685,-0.13315 0.582647,-0.19999 0.947746,-0.19999 h 9.654191 c 0.11424,1.9e-4 0.21692,0.0511 0.28939,0.13281 0.0725,0.0817 0.11474,0.19412 0.10903,0.31626 l -0.0961,2.29805 c 0.2329,0.0367 0.4283,0.0425 0.58602,0.0176 0.15771,-0.025 0.27764,-0.0808 0.36018,-0.16743 0.0825,-0.0866 0.12749,-0.20419 0.13488,-0.35243 0.007,-0.14824 -0.0227,-0.32708 -0.0904,-0.53692 l 0.006,-1.65416 c -3e-5,-0.10772 0.0912,-0.19501 0.2036,-0.19482 h 30.94747 c 0.62198,0 1.1553,0.0346 1.60042,0.10335 0.11972,0.0185 0.18091,0.0597 0.28783,0.0832 0.001,-0.41443 0.005,-0.83634 0.0171,-1.27331 -0.33319,-0.0497 -0.6551,-0.11314 -1.02992,-0.11317 0,0 -5.1e-4,0 -5.1e-4,0 h -11.46338 -5.2e-4 c -0.0226,0 -0.75412,0.0192 -2.19315,0.0568 0,0 -5.2e-4,0 -5.2e-4,0 -0.78648,0.0207 -1.57376,-0.002 -2.36213,-0.0677 0,0 -5.1e-4,0 -5.1e-4,0 -8.82055,0.0132 -17.64211,0.0203 -26.464537,0.0222 -0.52883,0 -1.009424,0.0654 -1.441773,0.19586 -0.432349,0.13043 -0.816455,0.32587 -1.152384,0.58652 -0.396152,0.30864 -0.695799,0.64393 -0.898653,1.00563 -0.101427,0.18085 -0.178435,0.36808 -0.231511,0.56224 -0.05308,0.19415 -0.08211,0.39506 -0.08682,0.60254 -0.0941,4.24569 -0.117329,11.44432 -0.07028,21.59558 0.0028,0.55565 0.06685,1.06038 0.19172,1.51464 0.124873,0.45425 0.310636,0.85791 0.557588,1.21078 0.246952,0.35286 0.554917,0.65493 0.923975,0.9064 0.369057,0.25147 0.79917,0.45246 1.29036,0.60255 0.186314,0.0574 0.483398,0.0927 0.891419,0.10542 0.408021,0.0128 0.92698,0.003 1.556494,-0.0289 1.021901,-0.0489 1.837642,-0.0734 2.447396,-0.0734 1.991108,0.004 3.982876,-0.003 5.975866,-0.0202 0.22771,-0.002 0.39624,-0.0316 0.50539,-0.0899 0.11668,-0.0631 0.18483,-0.14478 0.20412,-0.24547 0.0193,-0.10068 -0.0103,-0.2203 -0.0884,-0.35863 -0.0519,-0.0921 -0.13431,-0.14973 -0.21445,-0.14986 l -1.30432,-0.0196 c -0.0753,-0.001 -0.12172,-0.0164 -0.13952,-0.046 -0.0178,-0.0296 -0.007,-0.0734 0.0326,-0.13178 0.35286,-0.53447 0.61997,-1.07088 0.8015,-1.6092 0.18153,-0.53832 0.27749,-1.07857 0.28784,-1.62057 0.002,-0.0767 0.0663,-0.13618 0.14107,-0.12971 1.39641,0.10351 2.79684,0.14786 4.20078,0.13281 0.21925,-0.002 0.411,0.0393 0.57568,0.12402 0.16467,0.0847 0.30228,0.2127 0.41237,0.38396 0.0568,0.0898 0.12515,0.15612 0.19482,0.18913 0.20984,0.0998 0.34624,0.11336 0.40928,0.0413 0.0631,-0.072 0.0527,-0.22965 -0.031,-0.47335 -0.0903,-0.26442 -0.22917,-0.46649 -0.416,-0.60617 -0.18682,-0.13968 -0.42163,-0.21697 -0.70486,-0.23202 -1.50557,-0.0809 -3.03087,-0.10849 -4.57595,-0.0822 -0.12221,0.003 -0.2231,-0.0948 -0.22324,-0.21704 v -2.69596 c -1.5e-4,-0.10633 0.0849,-0.19253 0.18965,-0.19224 z"
       style="fill:#100773"
       id="path10786" /><path
       d="m 136.48463,106.17672 c -0.0101,-0.18158 -0.031,-0.34407 -0.0372,-0.53278 -0.0125,-0.3799 0.0159,-0.84075 0.017,-1.24644 -0.10692,-0.0235 -0.16811,-0.0647 -0.28783,-0.0832 -0.44512,-0.0688 -0.97844,-0.10335 -1.60042,-0.10335 h -30.94743 c -0.1124,-1.9e-4 -0.20362,0.0871 -0.2036,0.19482 l -0.006,1.65416 19.25825,-0.0253 13.12116,-0.12712 h 5.2e-4 c 0.17126,-9.5e-4 0.32644,0.0312 0.46612,0.0961 0.0824,0.0383 0.14768,0.11191 0.21911,0.17311 z"
       style="fill:#fefeff"
       id="path10813" /><path
       d="m 139.02246,107.51411 c -0.0344,-0.34817 -0.097,-0.66975 -0.18811,-0.96429 -0.0911,-0.29453 -0.21066,-0.56215 -0.35863,-0.80305 -0.14797,-0.2409 -0.32439,-0.45507 -0.52917,-0.64234 -0.20478,-0.18726 -0.4381,-0.34749 -0.6997,-0.4811 -0.19604,-0.10043 -0.49177,-0.16207 -0.78238,-0.22583 -0.001,0.40569 -0.0296,0.86654 -0.017,1.24644 0.006,0.18871 0.0271,0.3512 0.0372,0.53278 0.0497,0.0426 0.10805,0.0667 0.15244,0.12041 0.16655,0.20137 0.34133,0.37775 0.524,0.52916 0.18267,0.15141 0.37328,0.27788 0.57206,0.37931 0.19878,0.10143 0.40574,0.17801 0.62063,0.22944 0.21474,0.0514 0.43787,0.0776 0.6687,0.0791 z"
       style="fill:#fefeff"
       id="path10812" /><path
       d="m 102.77609,122.61964 0.35295,-0.75396 c -0.26253,-0.0226 -0.50775,-0.0635 -0.73535,-0.12299 -0.2276,-0.0595 -0.43779,-0.13762 -0.63045,-0.23409 -0.19267,-0.0965 -0.36782,-0.21129 -0.52555,-0.34468 -0.15774,-0.1334 -0.29785,-0.28547 -0.42065,-0.45579 -0.20984,-0.2917 -0.36003,-0.58544 -0.45062,-0.8816 -0.0906,-0.29615 -0.12169,-0.59493 -0.093,-0.89555 0.0287,-0.30062 0.11716,-0.60338 0.2651,-0.90847 0.14795,-0.3051 0.35547,-0.61233 0.6227,-0.92191 -0.31899,-0.0527 -0.59298,-0.14857 -0.82165,-0.28784 -0.22868,-0.13927 -0.412033,-0.32193 -0.550357,-0.54777 -0.08469,-0.13738 -0.15039,-0.32582 -0.197404,-0.56482 -0.04701,-0.239 -0.07534,-0.52856 -0.08475,-0.8692 -0.04328,-1.54414 -0.06323,-2.80121 -0.05943,-3.77134 0.0038,-0.97014 0.03135,-1.65334 0.08216,-2.04949 0.05128,-0.39803 0.150193,-0.73629 0.296623,-1.01493 0.14643,-0.27863 0.340298,-0.49756 0.581878,-0.6568 0.24158,-0.15925 0.5309,-0.25883 0.86765,-0.29869 0.33674,-0.0399 0.72099,-0.0201 1.1529,0.0594 l 0.0961,-2.29805 c 0.006,-0.12215 -0.0366,-0.23458 -0.10904,-0.31626 -0.0725,-0.0817 -0.17514,-0.13263 -0.28939,-0.13281 h -9.654189 c -0.365099,0 -0.680896,0.0668 -0.947746,0.19998 -0.26685,0.13316 -0.484755,0.33264 -0.65319,0.59893 -0.103507,0.16373 -0.179412,0.37663 -0.227376,0.63873 -0.04796,0.26209 -0.06799,0.57339 -0.06046,0.93379 0.101626,4.92884 0.127296,9.85208 0.07648,14.76964 0.227715,0.0452 0.43938,0.13266 0.635103,0.26251 0.02635,0.0188 0.162742,0.16552 0.409277,0.44029 0.143029,0.15996 0.328322,0.26159 0.556039,0.30489 l 0.846976,-0.0816 c 0.111451,-0.0121 0.196221,-0.18905 0.194821,-0.4067 l -0.01705,-2.00969 c 4.08e-4,-0.0802 0.06729,-0.14813 0.155546,-0.15813 0.204585,-0.0205 0.408608,-0.0313 0.612366,-0.0351 0.01238,-2.4e-4 0.02483,-0.002 0.03721,-0.002 0.07203,-4.8e-4 0.144068,-4.8e-4 0.216008,5.2e-4 0.02043,3.3e-4 0.04055,0.007 0.06098,0.007 0.458971,0.0113 0.916027,0.0597 1.370976,0.15658 0.107372,0.0231 0.185052,0.0911 0.186552,0.1633 0.0028,0.10727 -0.09182,0.20306 -0.284221,0.28784 0,0 0,5.1e-4 0,5.1e-4 -0.192397,0.0848 -0.482548,0.15804 -0.870231,0.22015 -0.08603,0.0137 -0.16465,0.0574 -0.22686,0.12247 -0.06221,0.0651 -0.108006,0.1516 -0.129191,0.25011 l -0.262516,1.18288 c -0.01399,0.0647 0.0365,0.12588 0.104387,0.1266 l 3.67006,0.13281 c 0.09109,0.004 0.178093,0.0398 0.245463,0.1018 0.154322,0.14303 0.22704,0.28585 0.218074,0.42892 -0.009,0.14307 -0.09962,0.2864 -0.271818,0.42943 l -0.200504,0.83509 c 0.05824,-0.0136 0.11158,-0.0203 0.162264,-0.0227 0.0061,-3.1e-4 0.01363,-0.002 0.01964,-0.003 0.0028,-7e-5 0.004,0.002 0.0067,0.002 0.114164,-10e-4 0.207945,0.0269 0.28112,0.0858 3.69e-4,2.5e-4 6.53e-4,7.9e-4 10e-4,0.001 0.0015,10e-4 0.0042,3.4e-4 0.0057,0.002 0.0012,0.001 0.0014,0.004 0.0026,0.005 0.07368,0.0631 0.126494,0.15658 0.15658,0.2837 l 0.400492,1.7477 c 0.02036,0.0922 0.06645,0.17648 0.132809,0.24288 0.263473,0.26912 0.41664,0.49371 0.45992,0.67437 0.06163,0.25078 0.148438,0.46707 0.260449,0.64906 0.112016,0.18198 0.24949,0.32968 0.41186,0.44287 0.16228,0.11304 0.34971,0.19183 0.56224,0.23616 0.2127,0.0444 0.45065,0.0545 0.71365,0.03 0.0725,-0.97673 0.10207,-1.97048 0.0889,-2.9807 -0.0132,-1.01021 -0.0692,-2.03688 -0.16795,-3.08043 -0.005,-0.0453 0.0415,-0.0824 0.0956,-0.076 z"
       style="fill:#2680f0"
       id="path10815" /><path
       d="m 143.00361,109.65971 c 0,0 -5.2e-4,0 -5.2e-4,0 v 10.12341 c 0,0 5.2e-4,5.2e-4 5.2e-4,5.2e-4 z"
       style="fill:#090379"
       id="path10770" /><path
       d="m 143.5519,109.39771 c -0.18504,0.0926 -0.35562,0.15018 -0.54829,0.262 v 10.12393 c 0.18322,0.0682 0.3451,0.0883 0.52141,0.14056 0.008,-0.53753 -0.0293,-0.7434 0.031,-1.66915 z"
       style="fill:#090379"
       id="path10768" /><path
       d="m 73.824889,113.55456 c -0.0022,0.006 -0.0061,0.0114 -0.0083,0.0176 -0.15625,0.44211 -0.273796,0.90334 -0.351916,1.37098 -0.0781,0.46763 -0.117306,0.94202 -0.117306,1.41076 0,0.46875 0.0392,0.93173 0.117306,1.37718 0.0781,0.44545 0.195666,0.873 0.351916,1.27073 0.02196,0.0559 0.05868,0.0988 0.08217,0.15347 0.07704,-0.36492 0.20204,-0.74071 0.248047,-1.09864 0.108672,-0.84546 0.131133,-1.67096 0.06666,-2.47736 -0.05528,-0.69151 -0.206008,-1.36189 -0.388606,-2.02469 z"
       style="fill:#130768"
       id="path10714" /><path
       d="m 73.837808,113.52718 c -0.02845,-0.10243 -0.04602,-0.20731 -0.07751,-0.30903 0.03386,0.10934 0.03426,0.22629 0.0646,0.33641 0.0034,-0.01 0.0094,-0.0178 0.01292,-0.0274 z"
       style="fill:#130768"
       id="path10713" /><path
       d="m 73.837808,113.52718 c -0.0035,0.01 -0.0095,0.0177 -0.01292,0.0274 0.182598,0.6628 0.333321,1.33318 0.388606,2.02469 -0.03224,-0.40321 -0.08623,-0.80184 -0.161747,-1.19528 -0.0555,-0.28913 -0.135076,-0.57289 -0.21394,-0.85679 z"
       style="fill:#130768"
       id="path10712" /><path
       d="m 139.13304,110.99038 c -0.0292,-1.15842 -0.0454,-2.3165 -0.11007,-3.47627 0,0 -5.1e-4,0 -5.1e-4,0 0.0647,1.15977 0.0813,2.31778 0.11058,3.47627 z"
       style="fill:#8bd5fe"
       id="path10811" /><path
       d="m 136.36112,122.33697 c 0.0552,-0.24132 0.0993,-0.49785 0.17105,-0.71675 0.12906,-0.39375 0.28597,-0.74993 0.47542,-1.06298 0.18945,-0.31304 0.4115,-0.58273 0.67025,-0.80461 0.25875,-0.22187 0.55394,-0.3955 0.8909,-0.51573 0.13433,-0.0479 0.30645,-0.0474 0.45423,-0.078 0.0287,-0.24155 0.073,-0.44829 0.0842,-0.72864 0.0734,-1.81608 0.103,-3.63355 0.0889,-5.45289 -0.005,-0.66169 -0.0463,-1.32483 -0.063,-1.98696 -0.15552,-0.0103 -0.33611,0.0177 -0.4749,-0.0181 -0.31944,-0.0824 -0.59562,-0.23092 -0.83406,-0.43873 -0.23844,-0.20782 -0.43933,-0.47448 -0.6072,-0.79375 -0.16787,-0.31928 -0.30309,-0.69115 -0.41083,-1.10795 -0.10773,-0.41679 -0.18794,-0.87844 -0.24598,-1.37872 -0.0388,-0.33465 -0.055,-0.70956 -0.0754,-1.07642 -0.0714,-0.0612 -0.13674,-0.13482 -0.21911,-0.17312 -0.13968,-0.0649 -0.29486,-0.0971 -0.46612,-0.0961 h -5.2e-4 l -13.12116,0.12712 c 0.31334,0.032 0.55259,0.11945 0.71727,0.26252 0.0823,0.0715 0.14603,0.15703 0.1912,0.25632 0.0452,0.0993 0.0716,0.21248 0.0796,0.33951 0.10822,1.74928 0.17063,3.78094 0.18707,6.09472 0.0164,2.31379 -0.0131,4.9097 -0.0884,7.78816 0,0.0188 -0.0348,0.27483 -0.10438,0.76791 -0.0198,0.14302 -0.0169,0.27098 0.009,0.38343 0.0257,0.11245 0.0742,0.20959 0.14521,0.29145 0.14212,0.16373 0.37497,0.26608 0.69867,0.30748 3.58888,-0.0527 7.1779,-0.0874 10.76678,-0.10439 0.40086,-0.002 0.75534,-0.0284 1.0635,-0.0796 0.007,-0.001 0.0111,-0.004 0.0181,-0.005 z"
       style="fill:#8bd5fe"
       id="path10805" /><path
       d="m 113.49171,119.07309 -2.73264,0.0238 c -0.0793,6.9e-4 -0.15119,-0.0306 -0.20361,-0.0816 4.8e-4,5e-4 0.001,9.2e-4 0.002,0.002 0.0523,0.0502 0.12325,0.0813 0.20154,0.0806 l 2.73265,-0.0238 z"
       style="fill:#77cfff"
       id="path11251" /><path
       d="m 122.67772,106.03461 -19.25825,0.0253 c 0.0677,0.20984 0.0978,0.38868 0.0904,0.53692 -0.007,0.14824 -0.0523,0.26581 -0.13488,0.35243 -0.0825,0.0866 -0.20247,0.14246 -0.36018,0.16743 -0.15772,0.025 -0.35312,0.0191 -0.58602,-0.0176 -0.4319,-0.0795 -0.81615,-0.0993 -1.1529,-0.0594 -0.33674,0.0399 -0.62606,0.13945 -0.86764,0.29869 -0.24159,0.15924 -0.435451,0.37817 -0.581881,0.65681 -0.14643,0.27863 -0.245339,0.61689 -0.296623,1.01492 -0.05081,0.39616 -0.07836,1.07936 -0.08216,2.04949 -0.0038,0.97013 0.01614,2.2272 0.05943,3.77135 0.0094,0.34064 0.03773,0.6302 0.08475,0.8692 0.04701,0.239 0.112716,0.42744 0.197404,0.56482 0.138324,0.22584 0.32168,0.4085 0.55035,0.54777 0.22868,0.13927 0.50267,0.23514 0.82166,0.28784 0.294,-0.19658 0.58421,-0.343 0.87075,-0.44338 3.4e-4,-1.2e-4 6.9e-4,-4e-4 0.001,-5.2e-4 0.004,-0.001 0.008,-0.004 0.0114,-0.006 0.003,-0.001 0.006,-5.3e-4 0.009,-0.002 0.0372,-0.0127 0.073,-0.009 0.11007,-0.0196 0.24439,-0.0733 0.48709,-0.12647 0.72605,-0.12919 0.005,-6e-5 0.0101,-0.003 0.015,-0.003 0.004,-2e-5 0.008,0.002 0.0119,0.003 3.7e-4,0 6.7e-4,5.2e-4 0.001,5.2e-4 0.31329,3e-5 0.62217,0.06 0.92604,0.18138 0.003,0.001 0.006,4.6e-4 0.008,0.002 0.002,8.7e-4 0.004,0.003 0.006,0.004 0.30853,0.1253 0.6122,0.31154 0.91106,0.56224 0.23618,0.19761 0.42379,0.4227 0.56224,0.67542 0.13845,0.25271 0.22774,0.53307 0.2682,0.84077 0.0367,0.27665 0.029,0.54762 -0.0233,0.81339 -0.0523,0.26577 -0.14928,0.52634 -0.29042,0.78135 -0.11003,0.19841 -0.23764,0.37863 -0.38241,0.54053 0,0 0,5.2e-4 0,5.2e-4 -0.14489,0.16198 -0.3071,0.30557 -0.48679,0.43098 -0.1797,0.12541 -0.37718,0.2326 -0.5917,0.32143 -0.21451,0.0888 -0.4462,0.15913 -0.69556,0.21135 l -0.35295,0.75396 21.73666,-0.0935 c -0.16185,-0.0207 -0.30109,-0.0567 -0.41755,-0.10801 -0.11647,-0.0513 -0.21002,-0.11757 -0.28113,-0.19947 -0.0711,-0.0819 -0.11956,-0.17901 -0.14521,-0.29145 -0.0256,-0.11245 -0.0285,-0.24041 -0.009,-0.38344 0.0696,-0.49307 0.10438,-0.74909 0.10438,-0.76791 0.0753,-2.87845 0.10482,-5.47437 0.0884,-7.78816 -0.0164,-2.31378 -0.0789,-4.34544 -0.18707,-6.09472 -0.016,-0.25406 -0.10611,-0.45276 -0.27078,-0.59583 -0.16468,-0.14307 -0.40393,-0.23052 -0.71727,-0.26251 z m -18.14205,1.95234 c 0.009,2.1e-4 0.0138,0.004 0.0227,0.004 0.113,0.005 0.20862,0.0223 0.28578,0.0537 0,0 5.1e-4,0 5.1e-4,0 0.005,0.002 0.0133,0.001 0.0181,0.004 0.006,0.003 0.008,0.009 0.0139,0.0124 0.001,6.5e-4 0.002,0.002 0.003,0.003 0.0709,0.0358 0.127,0.0825 0.16227,0.14469 0.002,0.003 0.006,0.003 0.007,0.006 0.001,0.002 -0.002,0.008 -5.2e-4,0.01 0.001,0.003 0.002,0.007 0.004,0.01 0.032,0.0681 0.0482,0.14785 0.0419,0.24443 -5.8e-4,0.009 -0.004,0.0194 -0.005,0.0284 -0.0103,0.10328 -0.0375,0.21928 -0.0894,0.35347 -0.0312,0.0815 -0.10769,0.13836 -0.1974,0.14676 -0.44791,0.0423 -0.92398,0.0563 -1.42834,0.0413 -0.50436,-0.0149 -1.03701,-0.0588 -1.59784,-0.13126 0.35946,0.26535 0.58072,0.48348 0.66353,0.65474 0.39521,0.59281 0.72458,1.19951 0.98805,1.82056 0.0941,0.22207 0.24987,0.40987 0.46767,0.56327 0.21781,0.1534 0.49765,0.2724 0.83923,0.35709 0.0957,0.0234 0.17427,0.0775 0.21756,0.14986 0.0922,0.15055 0.12328,0.2671 0.0935,0.34985 -0.0297,0.0828 -0.12032,0.1317 -0.27182,0.14676 -0.12609,0.0151 -0.27541,-0.012 -0.44855,-0.0816 -0.17503,-0.0715 -0.36032,-0.14608 -0.55604,-0.22324 -0.096,-0.0386 -0.16415,-0.0419 -0.20464,-0.01 -0.0405,0.0321 -0.0533,0.0995 -0.0382,0.20205 0.0583,0.40839 0.0898,0.80292 0.0946,1.18391 0.005,0.38099 -0.0172,0.74845 -0.0661,1.10226 -0.0123,0.0862 -0.0735,0.15638 -0.15555,0.17828 -0.39879,0.10346 -0.77237,0.15231 -1.12034,0.14625 0,0 -5.2e-4,0 -5.2e-4,0 -0.34811,-0.006 -0.67055,-0.0672 -0.9679,-0.18294 -0.24921,-0.0978 -0.43197,-0.24209 -0.54829,-0.43201 0,0 -5.1e-4,0 -5.1e-4,0 -0.1163,-0.19009 -0.16577,-0.4262 -0.14883,-0.70849 0.0245,-0.41026 0.0367,-0.62768 0.0367,-0.65216 -0.0357,-1.63165 -0.0326,-3.26557 0.009,-4.90099 0.003,-0.12888 0.0552,-0.24601 0.13849,-0.33383 0.0833,-0.0878 0.19792,-0.1463 0.32711,-0.15709 0.88264,-0.0715 1.77749,-0.0972 2.6846,-0.0765 0.0207,0 0.2259,-0.008 0.61546,-0.0253 0.0387,-0.002 0.0757,-0.002 0.11111,-0.001 z"
       style="fill:#77cfff"
       id="path10814" /><path
       d="m 105.04882,108.22414 c 0.0734,0.14541 0.06,0.35552 -0.0486,0.63614 0.0519,-0.13419 0.0791,-0.25019 0.0894,-0.35347 10e-4,-0.009 0.004,-0.0196 0.005,-0.0284 0.006,-0.0966 -0.01,-0.17636 -0.0419,-0.24443 -0.002,-0.003 -0.003,-0.007 -0.004,-0.01 z"
       style="fill:#111c96"
       id="path11163" /><path
       d="m 104.8447,108.04482 c 0.0114,0.005 0.0214,0.0108 0.032,0.016 -0.006,-0.003 -0.007,-0.01 -0.0139,-0.0124 -0.005,-0.002 -0.0132,-0.002 -0.0181,-0.004 z"
       style="fill:#111c96"
       id="path11162" /><path
       d="m 104.53567,107.98695 c -0.0353,-8.4e-4 -0.0724,-5.8e-4 -0.1111,0.001 -0.38956,0.0169 -0.59476,0.0253 -0.61546,0.0253 -0.90711,-0.0207 -1.80196,0.005 -2.6846,0.0765 -0.12919,0.0108 -0.24382,0.0693 -0.32711,0.15709 -0.0833,0.0878 -0.13521,0.20495 -0.13849,0.33383 -0.0414,1.63542 -0.0445,3.26934 -0.009,4.90099 0,0.0245 -0.0122,0.2419 -0.0367,0.65216 -0.0169,0.28229 0.033,0.5184 0.14934,0.70848 0.11632,0.18992 0.29908,0.33421 0.54829,0.43201 0.29735,0.11574 0.61979,0.17682 0.9679,0.18294 0,0 5.2e-4,0 5.2e-4,0 0.34797,0.006 0.72155,-0.0428 1.12034,-0.14625 0.0821,-0.0219 0.14329,-0.0921 0.15555,-0.17828 0.0489,-0.3538 0.0709,-0.72126 0.0661,-1.10225 -0.005,-0.38099 -0.0362,-0.77552 -0.0946,-1.18391 -0.015,-0.10257 -0.002,-0.16999 0.0382,-0.20205 0.0405,-0.0321 0.10866,-0.0288 0.20464,0.01 0.19572,0.0772 0.38101,0.15172 0.55604,0.22324 0.17314,0.0696 0.32246,0.0967 0.44855,0.0816 0.1515,-0.0151 0.24207,-0.064 0.27182,-0.14676 0.0297,-0.0827 -0.001,-0.1993 -0.0935,-0.34985 -0.0433,-0.0723 -0.12182,-0.12641 -0.21756,-0.14986 -0.34158,-0.0847 -0.62142,-0.20369 -0.83923,-0.35709 -0.2178,-0.1534 -0.37357,-0.3412 -0.46767,-0.56327 -0.26347,-0.62105 -0.59284,-1.22775 -0.98805,-1.82056 l 0.12144,4.51083 c 0.003,0.13292 0.0662,0.25359 0.16898,0.32453 0.17314,0.12045 0.29334,0.21695 0.36018,0.28991 0.0668,0.073 0.0803,0.12239 0.0408,0.14779 -0.12545,0.0817 -0.27631,0.11398 -0.42323,0.0904 -0.32369,-0.0508 -0.58349,-0.13435 -0.77928,-0.25011 -0.19579,-0.11577 -0.32757,-0.26375 -0.39532,-0.44442 -0.008,-0.0207 -0.0288,-0.40543 -0.0646,-1.15445 -0.0339,-0.70197 -0.0254,-1.40011 0.0258,-2.09496 0.0512,-0.69486 0.14519,-1.38644 0.28164,-2.0743 0.56082,0.0724 1.09347,0.11631 1.59783,0.13126 0.50436,0.0149 0.98043,10e-4 1.42834,-0.0413 0.0897,-0.008 0.16624,-0.0653 0.1974,-0.14676 0.1086,-0.28061 0.12201,-0.49072 0.0486,-0.63614 -0.002,-0.005 -0.004,-0.0111 -0.007,-0.016 -0.0353,-0.0622 -0.0914,-0.10889 -0.16226,-0.14469 -0.001,-6.6e-4 -0.002,-0.002 -0.003,-0.003 -0.0107,-0.005 -0.0206,-0.0114 -0.032,-0.016 0,0 -5.2e-4,0 -5.2e-4,0 -0.0772,-0.0314 -0.17278,-0.0489 -0.28577,-0.0537 -0.009,-3.8e-4 -0.0135,-0.004 -0.0227,-0.004 z"
       style="fill:#111c96"
       id="path11161" /><path
       d="m 77.452057,109.99612 c 0.04479,3.84973 0.03447,7.70146 0.03669,11.55279 0.02791,-0.002 0.04932,0.009 0.07751,0.007 0.46875,-0.0373 0.976542,-0.15365 1.523421,-0.3607 0.54687,-0.20705 1.133033,-0.50515 1.758033,-0.9064 0.624999,-0.40188 1.188477,-0.71736 1.696537,-0.95343 0.305027,-0.14174 0.55195,-0.20041 0.818038,-0.28629 l 0.0026,-8.25272 c -0.260932,-0.0107 -0.501776,0.006 -0.790133,-0.0424 -0.527669,-0.0886 -1.102027,-0.24197 -1.727026,-0.46509 -0.625,-0.22375 -1.211163,-0.35547 -1.758033,-0.40721 -0.546879,-0.0517 -1.054671,-0.0236 -1.523421,0.0724 -0.04153,0.008 -0.07329,0.0328 -0.114205,0.0424 z"
       style="fill:#345fc5"
       id="path10718" /><path
       d="m 108.8398,108.53006 c -0.0735,0 -0.14007,0.0295 -0.1881,0.0775 -0.048,0.048 -0.0775,0.1146 -0.0775,0.18811 v 0.0165 c 0,0.0735 0.0295,0.14007 0.0775,0.1881 0.048,0.048 0.1146,0.0775 0.1881,0.0775 h 7.89254 c 0.0735,0 0.14008,-0.0295 0.18811,-0.0775 0.048,-0.048 0.0775,-0.1146 0.0775,-0.1881 v -0.0165 c 0,-0.0735 -0.0295,-0.14008 -0.0775,-0.18811 -0.048,-0.048 -0.1146,-0.0775 -0.18811,-0.0775 z"
       style="fill:#08146d"
       id="path11178" /><path
       d="m 108.8398,108.53006 h 7.89254 c 0.0735,0 0.14008,0.0295 0.18811,0.0775 0.048,0.048 0.0775,0.1146 0.0775,0.18811 v 0.0165 c 0,0.0735 -0.0295,0.14007 -0.0775,0.1881 -0.048,0.048 -0.1146,0.0775 -0.18811,0.0775 h -7.89254 c -0.0735,0 -0.14007,-0.0295 -0.1881,-0.0775 -0.048,-0.048 -0.0775,-0.1146 -0.0775,-0.1881 v -0.0165 c 0,-0.0735 0.0295,-0.14008 0.0775,-0.18811 0.048,-0.048 0.1146,-0.0775 0.1881,-0.0775 z"
       style="fill:#08146d"
       id="path11177" /><path
       d="m 101.77667,108.91712 c -0.13644,0.68786 -0.23041,1.37944 -0.28164,2.07429 -0.0512,0.69486 -0.0597,1.393 -0.0258,2.09497 0.0358,0.74901 0.0571,1.13375 0.0646,1.15445 0.0678,0.18066 0.19954,0.32865 0.39533,0.44441 0.19579,0.11577 0.45558,0.19931 0.77928,0.25012 0.14692,0.0235 0.29777,-0.009 0.42323,-0.0904 0.079,-0.0508 -0.0547,-0.19681 -0.40101,-0.4377 -0.10281,-0.0709 -0.16565,-0.19161 -0.16898,-0.32453 l -0.12144,-4.51083 c -0.0828,-0.17126 -0.30407,-0.38939 -0.66353,-0.65474 z"
       style="fill:#2f74ef"
       id="path11164" /><path
       d="m 131.21725,109.50417 c 0.10198,-0.017 0.20506,-0.0242 0.30902,-0.0259 -0.0277,3.5e-4 -0.0556,-0.001 -0.0832,5.2e-4 -0.0759,0.004 -0.15102,0.0129 -0.22582,0.0253 z"
       style="fill:#6ec8fd"
       id="path11182" /><path
       d="m 131.55728,109.47574 c -0.01,1e-5 -0.0195,0.002 -0.0295,0.003 -5.1e-4,1e-5 -0.001,-1e-5 -0.002,0 -0.10396,0.002 -0.20704,0.009 -0.30902,0.0258 -0.38298,0.064 -0.73906,0.16695 -1.06867,0.30903 -0.32962,0.14208 -0.63276,0.32345 -0.90899,0.54363 -0.27623,0.22019 -0.52598,0.47945 -0.74879,0.77773 -0.22282,0.29829 -0.4187,0.63544 -0.58808,1.01183 -0.0349,0.0772 -0.0457,0.17057 -0.031,0.2682 0.0261,0.18584 0.0284,0.36822 0.008,0.54725 -0.0207,0.17904 -0.0645,0.35488 -0.13178,0.5271 -0.13451,0.34444 -0.36229,0.67508 -0.68316,0.99219 0.42297,0.56035 0.86493,1.0172 1.32602,1.37098 0.23054,0.17688 0.46583,0.32795 0.7059,0.4532 0.24007,0.12525 0.48524,0.22508 0.73484,0.29869 0.24959,0.0736 0.50361,0.12117 0.76274,0.14314 0.25913,0.022 0.52303,0.0183 0.79168,-0.0114 0.53731,-0.0593 1.09374,-0.222 1.66915,-0.48782 0.44885,-0.20702 0.83235,-0.44443 1.15084,-0.7121 0.31848,-0.26767 0.57196,-0.5656 0.76016,-0.89401 0.22301,-0.3905 0.36249,-0.80805 0.41806,-1.25263 0.0556,-0.44458 0.0272,-0.91619 -0.0847,-1.4149 -0.30958,-0.39051 -0.64603,-0.75069 -1.00976,-1.08004 -0.36373,-0.32936 -0.75474,-0.62789 -1.17254,-0.89607 -0.26632,-0.17105 -0.52658,-0.29792 -0.78186,-0.38499 -3.4e-4,-1.1e-4 -7e-4,-4e-4 -0.001,-5.2e-4 -0.008,-0.003 -0.0164,-0.006 -0.0248,-0.009 0,0 -5.2e-4,0 -5.2e-4,0 -0.25166,-0.0831 -0.4981,-0.12494 -0.73897,-0.12609 -0.004,-2e-5 -0.008,-0.002 -0.0124,-0.002 z m -0.53692,1.00459 c 0.3024,3.3e-4 0.63843,0.0558 1.00717,0.16692 0.24701,0.0546 0.46387,0.13181 0.65061,0.23203 0.18674,0.10022 0.34324,0.22362 0.46974,0.36948 0.1265,0.14586 0.22309,0.31442 0.28939,0.50591 0.0663,0.1915 0.10239,0.40573 0.10852,0.64286 0.006,0.22254 -0.0176,0.42277 -0.0698,0.60048 -0.0522,0.1777 -0.13333,0.33272 -0.24339,0.4656 -0.11006,0.13289 -0.24909,0.24369 -0.41703,0.33177 -0.16794,0.0881 -0.36483,0.1536 -0.59066,0.19688 -0.34346,0.12515 -0.65916,0.20664 -0.94723,0.24443 -0.28808,0.0378 -0.54867,0.032 -0.78135,-0.0176 -0.23268,-0.0496 -0.43767,-0.14309 -0.61495,-0.28008 -0.17727,-0.137 -0.32669,-0.31767 -0.44855,-0.54209 -0.0983,-0.18067 -0.17042,-0.36001 -0.21652,-0.53847 -0.0461,-0.17845 -0.0661,-0.35604 -0.06,-0.53227 0.006,-0.17622 0.0383,-0.35156 0.0966,-0.52555 0.0583,-0.17398 0.14265,-0.34658 0.25321,-0.51831 0.17208,-0.26783 0.38431,-0.46839 0.63665,-0.60203 0.25235,-0.13364 0.54483,-0.20035 0.87747,-0.19999 z"
       style="fill:#6ec8fd"
       id="path11180" /><path
       d="m 131.55728,109.47574 c 0.004,0 0.008,0.002 0.0124,0.002 0.24087,0.001 0.48731,0.043 0.73897,0.12609 0,0 5.2e-4,0 5.2e-4,0 0.004,0.001 0.007,8.3e-4 0.0108,0.002 0.005,0.001 0.009,0.005 0.014,0.007 3.3e-4,1.2e-4 6.9e-4,4.1e-4 0.001,5.2e-4 0.25528,0.0871 0.51554,0.21394 0.78186,0.38499 0.4178,0.26818 0.80881,0.56671 1.17254,0.89607 0.36373,0.32935 0.70018,0.68953 1.00976,1.08004 0.0339,-0.13362 0.1008,-0.19664 0.2005,-0.18914 0.064,0.004 0.12506,0.0443 0.18346,0.12144 0.24843,0.32276 0.41198,0.64839 0.49092,0.9772 0.0789,0.32882 0.0733,0.66082 -0.017,0.99581 -0.13738,0.51095 -0.32281,0.97106 -0.55604,1.38027 -0.23323,0.40922 -0.51427,0.7674 -0.84336,1.07487 -0.32908,0.30748 -0.70624,0.56425 -1.1312,0.76998 -0.42495,0.20574 -0.89769,0.3606 -1.41851,0.46457 -0.47426,0.095 -0.94399,0.14462 -1.40922,0.14883 -0.46524,0.004 -0.92597,-0.0369 -1.38235,-0.1235 -0.51283,-0.0969 -0.9707,-0.24616 -1.37356,-0.44752 -0.40285,-0.20137 -0.7507,-0.45486 -1.04334,-0.76068 -0.18726,-0.19619 -0.34793,-0.40627 -0.48163,-0.63045 -0.1337,-0.22419 -0.24022,-0.46251 -0.32039,-0.71469 -0.0802,-0.25218 -0.13353,-0.51822 -0.1602,-0.7984 -0.0267,-0.28017 -0.0268,-0.57446 0,-0.88263 0.0169,-0.19384 0.08,-0.34822 0.18914,-0.46302 0.12609,-0.13362 0.24055,-0.17732 0.34313,-0.13126 0.10258,0.0461 0.19329,0.18189 0.27233,0.40773 0.0734,0.21078 0.14743,0.64684 0.22273,1.30741 0.32087,-0.31711 0.54865,-0.64775 0.68316,-0.99219 0.13452,-0.34443 0.17578,-0.70266 0.12403,-1.07435 -0.0147,-0.0976 -0.004,-0.191 0.031,-0.2682 0.16938,-0.37639 0.36526,-0.71354 0.58808,-1.01183 0.22281,-0.29828 0.47256,-0.55754 0.74879,-0.77773 0.27623,-0.22018 0.57937,-0.40155 0.90899,-0.54363 0.32961,-0.14208 0.68569,-0.24504 1.06867,-0.30903 0.0748,-0.0125 0.14993,-0.0211 0.22582,-0.0253 0.0276,-0.002 0.0555,-1.7e-4 0.0832,-5.1e-4 5.2e-4,-1e-5 10e-4,0 0.002,0 0.01,-1.6e-4 0.0195,-0.003 0.0295,-0.003 z"
       style="fill:#6ec8fd"
       id="path11179" /><path
       d="m 131.02036,110.48033 c -0.33264,-3.6e-4 -0.62512,0.0663 -0.87747,0.19999 -0.25234,0.13364 -0.46457,0.3342 -0.63665,0.60203 -0.11056,0.17173 -0.19487,0.34433 -0.25321,0.51831 -0.0583,0.17399 -0.0905,0.34933 -0.0966,0.52555 -0.006,0.17623 0.0138,0.35382 0.06,0.53227 0.0461,0.17846 0.11819,0.3578 0.21652,0.53847 0.12186,0.22442 0.27128,0.40509 0.44855,0.54209 0.17728,0.13699 0.38227,0.23049 0.61495,0.28008 0.23268,0.0496 0.49327,0.0554 0.78135,0.0176 0.28807,-0.0378 0.60377,-0.11928 0.94723,-0.24443 -0.28794,-0.0781 -0.51762,-0.16454 -0.68937,-0.25993 -0.17174,-0.0954 -0.28554,-0.19973 -0.34106,-0.31264 -0.1562,-0.32182 -0.25334,-0.66009 -0.29094,-1.01389 -0.0273,-0.25689 -0.0244,-0.48611 0.009,-0.68782 0.0332,-0.20171 0.097,-0.37591 0.19068,-0.52245 0.0937,-0.14654 0.21743,-0.2657 0.37156,-0.35708 0.15412,-0.0914 0.33839,-0.15497 0.55293,-0.1912 -0.36874,-0.11116 -0.70477,-0.16659 -1.00717,-0.16692 z"
       style="fill:#a9e4fc"
       id="path11194" /><path
       d="m 132.02753,110.64725 c -0.21454,0.0362 -0.39881,0.0998 -0.55293,0.1912 -0.15413,0.0914 -0.27788,0.21055 -0.37156,0.35708 -0.0937,0.14654 -0.15747,0.32074 -0.19068,0.52245 -0.0332,0.20171 -0.0361,0.43093 -0.009,0.68782 0.0376,0.3538 0.13474,0.69207 0.29094,1.01389 0.0555,0.11292 0.16932,0.21725 0.34106,0.31264 0.17175,0.0954 0.40143,0.18183 0.68937,0.25993 0.22583,-0.0433 0.42272,-0.10881 0.59066,-0.19688 0.16794,-0.0881 0.30697,-0.19888 0.41703,-0.33177 0.11006,-0.13288 0.1912,-0.28789 0.24339,-0.4656 0.0522,-0.17771 0.0754,-0.37794 0.0698,-0.60048 -0.006,-0.23713 -0.0422,-0.45136 -0.10852,-0.64286 -0.0663,-0.19149 -0.16289,-0.36005 -0.28939,-0.50591 -0.1265,-0.14586 -0.283,-0.26926 -0.46974,-0.36948 -0.18674,-0.10022 -0.4036,-0.17746 -0.65061,-0.23203 z"
       style="fill:#fefeff"
       id="path11195" /><path
       d="m 113.49792,111.47821 -2.97501,0.0263 c -0.069,6e-4 -0.13077,0.0294 -0.1757,0.0744 -2.7e-4,2.7e-4 -7.7e-4,2.4e-4 -0.001,5.1e-4 -4.4e-4,5.1e-4 -6.9e-4,10e-4 -0.001,0.002 0,0 -5.2e-4,5.2e-4 -5.2e-4,5.2e-4 -0.0441,0.0456 -0.0714,0.10746 -0.0708,0.17621 v 0.0227 c 5.9e-4,0.0688 0.029,0.13029 0.0739,0.17519 0,0 5.2e-4,5.1e-4 5.2e-4,5.1e-4 3.3e-4,5.2e-4 5.5e-4,0.001 0.001,0.001 2.7e-4,2.7e-4 7.5e-4,2.5e-4 10e-4,5.2e-4 0.0458,0.0443 0.10824,0.0719 0.17725,0.0713 l 2.97501,-0.0263 c 0.069,-5.9e-4 0.13076,-0.0293 0.1757,-0.0744 2.7e-4,-2.7e-4 7.6e-4,-2.4e-4 0.001,-5.2e-4 0,0 5.2e-4,0 5.2e-4,0 2.7e-4,-2.7e-4 2.5e-4,-7.5e-4 5.1e-4,-10e-4 0.0446,-0.0457 0.0719,-0.10807 0.0713,-0.17725 v -0.0227 c -5e-4,-0.0692 -0.029,-0.13125 -0.0744,-0.17621 -2.7e-4,-2.7e-4 -2.4e-4,-7.7e-4 -5.1e-4,-10e-4 0,0 -5.2e-4,0 -5.2e-4,0 -2.8e-4,-2.7e-4 -7.6e-4,-2.5e-4 -0.001,-5.2e-4 -0.0458,-0.0443 -0.10825,-0.0719 -0.17725,-0.0713 z"
       style="fill:#09045d"
       id="path11218" /><path
       d="m 135.29917,111.9743 c 0.11197,0.49872 0.14032,0.97032 0.0847,1.4149 -0.0278,0.22229 -0.0765,0.4377 -0.14625,0.64647 -0.0697,0.20877 -0.16031,0.41092 -0.27181,0.60617 -0.1882,0.3284 -0.44168,0.62633 -0.76016,0.894 -0.31849,0.26767 -0.70199,0.50508 -1.15084,0.7121 -0.2877,0.13291 -0.57086,0.24013 -0.84904,0.32143 -0.27818,0.0813 -0.55145,0.13669 -0.82011,0.16639 -0.26865,0.0297 -0.53255,0.0333 -0.79168,0.0114 -0.25913,-0.022 -0.51315,-0.0695 -0.76274,-0.14314 -0.2496,-0.0736 -0.49477,-0.17344 -0.73484,-0.29869 -0.24007,-0.12525 -0.47536,-0.27632 -0.7059,-0.4532 -0.46109,-0.35378 -0.90305,-0.81063 -1.32602,-1.37098 -0.0753,-0.66056 -0.14933,-1.09663 -0.22273,-1.30741 -0.079,-0.22584 -0.16975,-0.36167 -0.27233,-0.40773 -0.10258,-0.0461 -0.21704,-0.002 -0.34313,0.13126 -0.10916,0.1148 -0.1722,0.26918 -0.18914,0.46302 -0.0268,0.30817 -0.0267,0.60246 0,0.88263 0.0267,0.28018 0.08,0.54622 0.1602,0.7984 0.0802,0.25218 0.18669,0.4905 0.32039,0.71469 0.1337,0.22418 0.29437,0.43426 0.48163,0.63045 0.29264,0.30582 0.64049,0.55931 1.04334,0.76068 0.40286,0.20136 0.86073,0.35059 1.37356,0.44752 0.45638,0.0866 0.91711,0.12771 1.38235,0.1235 0.46523,-0.004 0.93496,-0.0538 1.40922,-0.14883 0.52082,-0.10397 0.99356,-0.25883 1.41851,-0.46457 0.42496,-0.20573 0.80212,-0.4625 1.1312,-0.76998 0.32909,-0.30747 0.61013,-0.66565 0.84336,-1.07487 0.23323,-0.40921 0.41866,-0.86932 0.55604,-1.38027 0.0903,-0.33499 0.096,-0.66699 0.017,-0.99581 -0.0789,-0.32881 -0.24249,-0.65444 -0.49092,-0.9772 -0.0584,-0.0772 -0.11947,-0.11767 -0.18346,-0.12144 -0.0997,-0.007 -0.16663,0.0555 -0.2005,0.18914 z"
       style="fill:#f9fcfd"
       id="path11181" /><path
       d="m 119.6531,115.33947 -10.69857,0.0558 c -0.05,2.6e-4 -0.0902,0.0409 -0.0899,0.0909 l 0.001,0.23719 c 2.6e-4,0.0494 0.0407,0.0883 0.0899,0.0889 5.7e-4,0 4.6e-4,0.001 0.001,0.001 l 10.69856,-0.0563 c 0.05,-2.6e-4 0.0902,-0.0409 0.0899,-0.091 l -0.001,-0.23668 c -2.7e-4,-0.05 -0.0409,-0.0902 -0.0909,-0.0899 z"
       style="fill:#100e79"
       id="path11228" /><path
       d="m 119.6531,115.33947 c 0.05,-3e-4 0.0907,0.0399 0.0909,0.0899 l 0.001,0.23668 c 3e-4,0.0501 -0.0399,0.0907 -0.0899,0.091 l -10.69857,0.0563 c -5.7e-4,0 -4.6e-4,-0.001 -0.001,-0.001 -0.0493,-6.2e-4 -0.0897,-0.0395 -0.0899,-0.0889 l -0.001,-0.23719 c -2.6e-4,-0.05 0.0399,-0.0907 0.0899,-0.0909 z"
       style="fill:#100e79"
       id="path11227" /><path
       d="m 101.1612,117.1006 c -0.26723,0.30958 -0.47475,0.61681 -0.6227,0.92191 -0.14794,0.30509 -0.23643,0.60785 -0.2651,0.90847 -0.0287,0.30062 0.002,0.5994 0.093,0.89555 0.0906,0.29616 0.24078,0.5899 0.45062,0.8816 0.1228,0.17032 0.26291,0.32239 0.42065,0.45579 0.15773,0.13339 0.33288,0.24821 0.52555,0.34468 0.38533,0.19294 0.84074,0.31192 1.3658,0.35708 0.49872,-0.10444 0.92788,-0.28196 1.28726,-0.53278 0.17981,-0.12549 0.34184,-0.26939 0.4868,-0.4315 0.14477,-0.1619 0.27238,-0.34212 0.3824,-0.54053 0.14115,-0.25501 0.23812,-0.51558 0.29042,-0.78135 0.0523,-0.26577 0.06,-0.53674 0.0233,-0.81339 -0.0405,-0.3077 -0.12975,-0.58806 -0.2682,-0.84077 -0.13844,-0.25272 -0.32605,-0.47781 -0.56224,-0.67542 -0.29885,-0.2507 -0.60253,-0.43694 -0.91105,-0.56224 -0.005,-0.002 -0.01,-0.004 -0.0145,-0.006 -0.30387,-0.1214 -0.61275,-0.18135 -0.92604,-0.18138 -3.7e-4,0 -6.7e-4,-5.2e-4 -0.001,-5.2e-4 -0.004,0 -0.008,-0.002 -0.0119,-0.002 -0.005,3e-5 -0.0101,0.003 -0.015,0.003 -0.23896,0.003 -0.48166,0.0559 -0.72606,0.12919 -0.037,0.0111 -0.0729,0.007 -0.11007,0.0196 -0.007,0.003 -0.0135,0.005 -0.0202,0.007 -3.3e-4,1.2e-4 -6.9e-4,4e-4 -0.001,5.2e-4 -0.28654,0.10038 -0.57674,0.2468 -0.87074,0.44338 z m 1.73065,0.41186 c 0.2183,10e-6 0.42631,0.0445 0.61546,0.12454 0.18915,0.08 0.35926,0.1954 0.5023,0.33848 0.14304,0.14308 0.25903,0.31364 0.339,0.50281 0.08,0.18918 0.12408,0.39716 0.12402,0.61547 -10e-6,0.21826 -0.044,0.42635 -0.12402,0.61547 -0.08,0.18911 -0.19597,0.35926 -0.339,0.50229 -0.14303,0.14303 -0.31318,0.259 -0.5023,0.339 -0.18911,0.08 -0.39721,0.12401 -0.61546,0.12402 -0.21826,-10e-6 -0.42635,-0.044 -0.61547,-0.12402 -0.18912,-0.08 -0.35926,-0.19597 -0.50229,-0.339 -0.14303,-0.14303 -0.25901,-0.31318 -0.339,-0.50229 -0.08,-0.18912 -0.12402,-0.39721 -0.12402,-0.61547 -7e-5,-0.21831 0.0441,-0.42629 0.12402,-0.61547 0.08,-0.18917 0.19596,-0.35973 0.339,-0.50281 0.14303,-0.14308 0.31314,-0.25845 0.50229,-0.33848 0.18915,-0.08 0.39716,-0.12453 0.61547,-0.12454 z"
       style="fill:#0e076c"
       id="path10825" /><path
       d="m 102.89185,117.51246 c -0.21831,10e-6 -0.42632,0.0445 -0.61547,0.12454 -0.18915,0.08 -0.35926,0.1954 -0.50229,0.33848 -0.14304,0.14308 -0.25904,0.31364 -0.339,0.50281 -0.08,0.18918 -0.12409,0.39716 -0.12402,0.61547 0,0.21826 0.044,0.42635 0.12402,0.61547 0.08,0.18911 0.19597,0.35926 0.339,0.50229 0.14303,0.14303 0.31317,0.259 0.50229,0.339 0.18912,0.08 0.39721,0.12401 0.61547,0.12402 0.21825,-10e-6 0.42635,-0.044 0.61546,-0.12402 0.18912,-0.08 0.35927,-0.19597 0.5023,-0.339 0.14303,-0.14303 0.259,-0.31318 0.339,-0.50229 0.08,-0.18912 0.12401,-0.39721 0.12402,-0.61547 6e-5,-0.21831 -0.0441,-0.42629 -0.12402,-0.61547 -0.08,-0.18917 -0.19596,-0.35973 -0.339,-0.50281 -0.14304,-0.14308 -0.31314,-0.25845 -0.5023,-0.33848 -0.18915,-0.08 -0.39716,-0.12453 -0.61546,-0.12454 z m -0.4532,1.24954 c 0.0612,-9.4e-4 0.1229,0.0634 0.185,0.19327 0.0621,0.12703 0.0949,0.24607 0.0987,0.35708 0.004,0.11101 -0.0214,0.21399 -0.076,0.30903 -0.0427,0.0772 -0.13608,0.11206 -0.22066,0.0822 -0.14585,-0.0517 -0.23284,-0.13977 -0.26097,-0.26355 -0.0281,-0.12378 0.003,-0.28331 0.092,-0.47904 0.0602,-0.13175 0.12074,-0.19801 0.1819,-0.19895 z"
       style="fill:#74ccfc"
       id="path11241" /><path
       d="m 136.52907,135.89428 c -0.004,-0.0882 -2.3e-4,-0.17056 -0.005,-0.25889 -0.0669,-1.325 -0.16433,-2.66646 -0.25683,-3.98271 -0.0925,-1.31625 -0.17998,-2.60754 -0.22686,-3.83129 -0.0469,-1.22375 -0.053,-2.3802 0.017,-3.4277 0.0187,-0.28011 0.0591,-0.53003 0.0894,-0.79375 -0.20979,0.0219 -0.40256,0.0719 -0.62529,0.0724 -0.65302,0.002 -1.30601,0.0122 -1.95905,0.031 -0.0768,0.001 -0.13638,0.0676 -0.12971,0.14417 0.0753,1.05766 0.0714,2.11528 -0.0114,3.17294 -0.002,0.0188 0.002,0.15067 0.0114,0.39532 0.006,0.15809 -0.04,0.26684 -0.13746,0.32608 -0.0974,0.0592 -0.24657,0.069 -0.447,0.0295 -0.14314,-0.0285 -0.24931,-0.14393 -0.25941,-0.28216 l -0.11317,-1.82366 c -0.0132,0.0997 -0.0506,0.16154 -0.11266,0.18604 -0.0559,0.0233 -0.12409,-0.0403 -0.14159,-0.1323 -0.0207,-0.11103 -0.0954,-0.21252 -0.22376,-0.30437 -0.1284,-0.0918 -0.31055,-0.17404 -0.54674,-0.2465 -0.14303,-0.0442 -0.26846,-0.10992 -0.3762,-0.19688 -0.10775,-0.087 -0.19782,-0.19519 -0.27027,-0.32505 -0.14868,-0.26347 -0.22968,-0.56071 -0.24288,-0.89193 l -6.39961,-0.0341 c -0.18725,2.00052 -0.29932,3.99217 -0.33641,5.97483 -0.0371,1.98266 7.7e-4,3.95632 0.11369,5.92109 0.004,0.0802 0.0679,0.14385 0.14676,0.14676 l 3.10782,0.12402 z m -6.00429,-8.75088 c 0.0737,-1.3e-4 0.14014,0.0298 0.18862,0.0775 2.8e-4,2.7e-4 7.6e-4,2.5e-4 0.001,5.2e-4 0,0 5.1e-4,0 5.1e-4,0 2.8e-4,2.7e-4 2.5e-4,7.6e-4 5.2e-4,0.001 2.8e-4,3e-4 4.8e-4,5.4e-4 0.001,0.001 0.0476,0.0483 0.0774,0.11444 0.0775,0.18758 v 0.017 c 1e-5,0.073 -0.0296,0.13922 -0.077,0.18759 -3.2e-4,3.3e-4 -7.5e-4,7.4e-4 -0.001,0.001 -2.7e-4,2.8e-4 -2.5e-4,7.6e-4 -5.2e-4,0.001 0,0 -5.2e-4,0 -5.2e-4,0 -2.7e-4,2.7e-4 -7.6e-4,2.4e-4 -0.001,5.1e-4 -0.0483,0.0478 -0.11441,0.0779 -0.1881,0.078 l -4.7253,0.008 c -0.0737,1.3e-4 -0.14014,-0.0298 -0.18861,-0.0775 -2.8e-4,-2.7e-4 -7.7e-4,-2.4e-4 -0.001,-5.1e-4 0,0 -5.1e-4,0 -5.1e-4,0 -2.8e-4,-2.8e-4 -2.5e-4,-7.7e-4 -5.2e-4,-0.001 -2.8e-4,-2.9e-4 -4.9e-4,-5.3e-4 -10e-4,-0.001 -0.0476,-0.0483 -0.0774,-0.11445 -0.0775,-0.18759 V 127.42 c -1.5e-4,-0.0737 0.0296,-0.14005 0.0775,-0.18862 2.7e-4,-2.7e-4 2.5e-4,-8e-4 5.2e-4,-0.001 0,0 5.2e-4,0 5.2e-4,0 5.1e-4,-5e-4 6.7e-4,-10e-4 0.002,-0.002 0.0483,-0.0476 0.11444,-0.0774 0.18758,-0.0775 z"
       style="fill:#8dd6ff"
       id="path10785" /><path
       d="m 143.52502,119.9242 c 0.0227,0.007 0.0446,0.0116 0.0672,0.0181 -0.0103,-0.56251 -0.0457,-1.12401 -0.0362,-1.68724 -0.0603,0.92575 -0.0233,1.13162 -0.031,1.66915 z"
       style="fill:#8dd6ff"
       id="path10777" /><path
       d="m 113.48655,118.46331 -2.73265,0.0238 c 0,0 -5.2e-4,0 -5.2e-4,0 -0.0791,6.3e-4 -0.15016,0.0333 -0.20153,0.0853 -5.8e-4,5.8e-4 -9.9e-4,10e-4 -0.002,0.002 -0.0509,0.0524 -0.0823,0.12392 -0.0817,0.20309 v 0.0341 c 6.9e-4,0.0792 0.0335,0.15007 0.0853,0.20153 5.6e-4,5.8e-4 9.8e-4,10e-4 0.002,0.002 0.0524,0.0511 0.12426,0.0823 0.2036,0.0816 l 2.73264,-0.0238 c 0.0788,-4.9e-4 0.14911,-0.0334 0.20051,-0.0847 l 0.004,-0.004 c 0,0 5.1e-4,-5.1e-4 5.1e-4,-5.1e-4 0.0501,-0.0523 0.0813,-0.12304 0.0806,-0.20154 v -0.0336 c -5e-4,-0.0798 -0.0332,-0.15141 -0.0858,-0.20309 -0.0525,-0.0517 -0.12489,-0.0834 -0.20464,-0.0827 z"
       style="fill:#040b6b"
       id="path11250" /><path
       d="m 102.43865,118.762 c -0.0612,9.4e-4 -0.12168,0.0672 -0.18191,0.19895 -0.0894,0.19573 -0.12011,0.35526 -0.092,0.47904 0.0281,0.12378 0.11512,0.2118 0.26097,0.26355 0.0846,0.0299 0.17792,-0.005 0.22066,-0.0822 0.0546,-0.095 0.0798,-0.19802 0.076,-0.30903 -0.004,-0.11101 -0.0366,-0.23005 -0.0987,-0.35708 -0.0621,-0.12986 -0.12384,-0.19421 -0.185,-0.19327 z"
       style="fill:#237fe7"
       id="path11253" /><path
       d="m 95.640611,120.42288 c -0.192398,0.0848 -0.482548,0.15855 -0.870231,0.22066 0.387683,-0.0621 0.677834,-0.13535 0.870231,-0.22015 z"
       style="fill:#0f0e65"
       id="path10819" /><path
       d="m 92.260456,122.50079 c -0.08092,0.18819 -0.103538,0.3586 -0.06821,0.51159 0.03533,0.15299 0.128589,0.28856 0.280086,0.40618 0.940805,-0.0912 1.881761,-0.13693 2.822567,-0.13694 0,0 5.17e-4,0 5.17e-4,0 0.940977,0 1.881589,0.0456 2.822566,0.13694 0.172199,-0.14303 0.262852,-0.28636 0.271818,-0.42943 0.009,-0.14307 -0.06375,-0.28589 -0.218074,-0.42892 -0.06737,-0.062 -0.154373,-0.0981 -0.245463,-0.1018 l -3.67006,-0.13281 c -0.06789,-7.2e-4 -0.118381,-0.0619 -0.104387,-0.1266 l 0.262516,-1.18288 c 0.02119,-0.0985 0.06698,-0.18501 0.129191,-0.25011 0.06221,-0.0651 0.140831,-0.10879 0.22686,-0.12247 0.387683,-0.0621 0.677833,-0.13588 0.870231,-0.22066 0.192398,-0.0848 0.287043,-0.18057 0.284221,-0.28784 -0.0015,-0.0722 -0.07918,-0.1402 -0.186552,-0.1633 -0.454949,-0.0968 -0.912005,-0.14528 -1.370976,-0.15658 -0.02042,-5e-4 -0.04054,-0.007 -0.06098,-0.007 -0.07194,-0.001 -0.143976,-0.001 -0.216008,-5.2e-4 -0.01238,1.7e-4 -0.02483,0.002 -0.03721,0.002 -0.203758,0.004 -0.407781,0.0147 -0.612366,0.0351 -0.08826,0.01 -0.155138,0.0779 -0.155546,0.15813 l 0.01705,2.00969 c 7.2e-4,0.10882 -0.02034,0.20761 -0.05529,0.28061 -0.03495,0.073 -0.08381,0.12009 -0.139527,0.12609 z"
       style="fill:#0f0e65"
       id="path10818" /><path
       d="m 101.49452,128.62961 c -0.26301,0.0245 -0.50096,0.0144 -0.71365,-0.03 -0.21253,-0.0443 -0.39997,-0.12312 -0.56224,-0.23616 0,0 -5.2e-4,0 -5.2e-4,0 -0.16237,-0.11319 -0.299333,-0.26088 -0.411345,-0.44287 -0.112011,-0.18199 -0.198815,-0.39828 -0.260449,-0.64906 -0.04328,-0.18066 -0.196447,-0.40525 -0.45992,-0.67437 -0.06636,-0.0664 -0.112444,-0.15066 -0.132809,-0.24288 l -0.400492,-1.7477 c 0.05081,0.25689 0.0348,0.46197 -0.04754,0.61495 -0.08234,0.15298 -0.231001,0.25387 -0.446485,0.30282 0.0038,0.8243 -0.05282,1.45353 -0.169499,1.88826 -0.09175,0.34064 -0.216186,0.63922 -0.373103,0.89555 -0.156918,0.25634 -0.346358,0.47033 -0.568441,0.64234 -0.222084,0.17201 -0.476535,0.30198 -0.763778,0.38964 -0.287243,0.0877 -0.607235,0.13313 -0.959631,0.13643 -0.490249,0.005 -0.913837,-0.0535 -1.270724,-0.17467 -0.178442,-0.0606 -0.340142,-0.13688 -0.485241,-0.22892 -0.1451,-0.0921 -0.273753,-0.19999 -0.385506,-0.3235 -0.111755,-0.12351 -0.206846,-0.26258 -0.285254,-0.41754 -0.07841,-0.15498 -0.139943,-0.32568 -0.185002,-0.51212 -0.09012,-0.37287 -0.113565,-0.8087 -0.07028,-1.30741 0.06022,-0.69068 0.03699,-1.72192 -0.07028,-3.09387 -0.151497,-0.11762 -0.244761,-0.25319 -0.280086,-0.40618 -0.03533,-0.15299 -0.01271,-0.3234 0.06821,-0.51159 -0.227717,-0.0433 -0.41301,-0.14493 -0.556039,-0.30489 -0.246535,-0.27477 -0.38293,-0.42147 -0.409277,-0.44029 -0.195723,-0.12985 -0.407388,-0.21735 -0.635103,-0.26251 -0.06587,1.9911 -0.09678,3.9757 -0.09302,5.95364 0,0.0169 -0.0089,0.24082 -0.02584,0.67179 -0.01882,0.4799 0.04923,0.89556 0.204122,1.24747 0.07744,0.17596 0.176821,0.33611 0.297656,0.48007 0.120835,0.14397 0.263163,0.27198 0.427364,0.38396 0.216425,0.14868 0.511183,0.26379 0.884701,0.34572 0.373517,0.0819 0.825795,0.13067 1.356506,0.14572 1.654238,0.047 3.307548,0.0226 4.959904,-0.0734 0.398033,-0.0235 0.742267,-0.0711 1.032495,-0.14314 0.290228,-0.072 0.526446,-0.16843 0.709006,-0.28887 0.26817,-0.17691 0.49252,-0.39757 0.67282,-0.66198 0.1803,-0.26441 0.31655,-0.57256 0.40876,-0.92449 z"
       style="fill:#2466e1"
       id="path10816" /><path
       d="m 98.117979,123.41856 c -0.940977,-0.0913 -1.881589,-0.13694 -2.822566,-0.13694 0,0 -5.17e-4,0 -5.17e-4,0 -0.940806,1e-5 -1.881762,0.0457 -2.822567,0.13694 0.107272,1.37195 0.130503,2.40319 0.07028,3.09387 -0.04328,0.49871 -0.01984,0.93454 0.07028,1.30741 0.09012,0.37287 0.246746,0.68264 0.470256,0.92966 0.223509,0.24702 0.513861,0.43126 0.870747,0.55242 0.356887,0.12116 0.780475,0.17937 1.270724,0.17467 0.352396,-0.003 0.672388,-0.0488 0.959631,-0.13643 0.287243,-0.0877 0.541694,-0.21763 0.763778,-0.38964 0.222083,-0.17201 0.411523,-0.386 0.568441,-0.64234 0.156917,-0.25633 0.281358,-0.55491 0.373103,-0.89555 0.116682,-0.43473 0.173263,-1.06396 0.169499,-1.88826 -0.158084,-0.19854 -0.249215,-0.40364 -0.272851,-0.61546 -0.02364,-0.21182 0.02022,-0.43036 0.131258,-0.65526 z"
       style="fill:#74ccfc"
       id="path10820" /><path
       d="m 132.47609,125.66545 -0.0284,-1.71101 c 6e-5,-0.0824 -0.0638,-0.1545 -0.15244,-0.17208 -0.30268,-0.0636 -0.61253,-0.0921 -0.92863,-0.092 -0.01,0 -0.0194,-0.003 -0.0294,-0.003 -0.0225,1.7e-4 -0.0461,0.006 -0.0687,0.006 -0.2322,0.005 -0.46706,0.022 -0.70642,0.061 0.0132,0.33122 0.0942,0.62846 0.24288,0.89193 0.0724,0.12986 0.16252,0.23808 0.27027,0.32505 0.10774,0.087 0.23317,0.15266 0.3762,0.19688 0.23619,0.0725 0.41834,0.15466 0.54674,0.2465 0.1284,0.0919 0.20305,0.19334 0.22376,0.30437 0.0175,0.092 0.0857,0.15563 0.14159,0.1323 0.0621,-0.0245 0.0995,-0.0863 0.11266,-0.18604 z"
       style="fill:#f9fcfd"
       id="path10828" /><path
       d="m 98.079739,124.23091 c 0.0061,-2.9e-4 0.01363,-0.002 0.01964,-0.003 0.118347,-0.003 0.213851,0.0278 0.288871,0.0884 -3.8e-4,-2.5e-4 -6.64e-4,-7.9e-4 -0.001,-0.001 -0.07318,-0.0589 -0.166956,-0.0868 -0.28112,-0.0858 -0.0027,0 -0.0039,-0.002 -0.0067,-0.002 -0.006,0.001 -0.01354,0.003 -0.01964,0.003 z"
       style="fill:#040b6b"
       id="path10822" /><path
       d="m 97.917475,124.25365 c -0.111036,0.2249 -0.154894,0.44344 -0.131258,0.65526 0.02364,0.21182 0.114767,0.41692 0.272851,0.61546 0.215484,-0.0489 0.364146,-0.14984 0.446485,-0.30282 0.08234,-0.15298 0.09835,-0.35806 0.04754,-0.61495 -0.03009,-0.12712 -0.0829,-0.22063 -0.15658,-0.2837 -0.0025,-0.003 -0.0056,-0.004 -0.0083,-0.006 -0.07502,-0.0606 -0.170524,-0.0914 -0.288871,-0.0884 -0.006,1.1e-4 -0.01351,0.002 -0.01964,0.003 -0.05068,0.002 -0.104024,0.009 -0.162264,0.0227 z"
       style="fill:#040b6b"
       id="path10821" /><path
       d="m 113.33514,127.6798 c 0.003,-1e-5 0.007,-0.001 0.01,-0.001 0.003,0 0.006,0.001 0.009,0.001 l 6.29212,-0.0114 c 0.0768,-1.3e-4 0.14602,-0.0313 0.19637,-0.0811 l 0.002,-0.002 c 0.0496,-0.0503 0.0806,-0.11923 0.0806,-0.19585 0,0 0,-5.2e-4 0,-5.2e-4 v -0.0109 -5.2e-4 c -1.3e-4,-0.0767 -0.0319,-0.14553 -0.0816,-0.19585 -2.6e-4,-2.7e-4 -2.5e-4,-7.7e-4 -5.1e-4,-10e-4 -7.5e-4,-8.3e-4 -0.001,-0.001 -0.002,-0.002 0,0 -5.1e-4,-5.1e-4 -5.1e-4,-5.1e-4 -0.0505,-0.0495 -0.11927,-0.0802 -0.19586,-0.0801 l -7.59384,0.0134 c 0,0 -5.2e-4,0 -5.2e-4,0 -0.0761,2.7e-4 -0.14466,0.0309 -0.19482,0.0801 -1.6e-4,1.6e-4 -3.6e-4,3.6e-4 -5.2e-4,5.2e-4 -0.001,0.001 -0.002,0.002 -0.003,0.004 -0.0493,0.0503 -0.0802,0.11893 -0.0801,0.19533 l 5.2e-4,0.0114 c 1.3e-4,0.077 0.0311,0.14651 0.0811,0.19689 2.7e-4,2.7e-4 2.4e-4,7.6e-4 5.1e-4,0.001 2.8e-4,2.8e-4 7.6e-4,2.5e-4 10e-4,5.2e-4 0.0504,0.05 0.1199,0.0807 0.19689,0.0806 z"
       style="fill:#040b6b"
       id="path10846" /><path
       d="m 130.52478,127.1434 -4.72529,0.008 c -0.0743,1.2e-4 -0.14127,0.0305 -0.18965,0.0791 -0.0484,0.0486 -0.0782,0.11537 -0.078,0.18966 v 0.0165 c 1.3e-4,0.0739 0.0299,0.1403 0.078,0.18862 2.7e-4,2.7e-4 2.4e-4,7.6e-4 5.2e-4,10e-4 0,0 5.1e-4,0 5.1e-4,0 2.7e-4,2.7e-4 7.6e-4,2.4e-4 10e-4,5.1e-4 0.0485,0.0477 0.11492,0.0776 0.18861,0.0775 l 4.7253,-0.008 c 0.0737,-1.3e-4 0.13981,-0.0303 0.1881,-0.078 2.7e-4,-2.7e-4 7.6e-4,-2.4e-4 0.001,-5.1e-4 0,0 5.2e-4,0 5.2e-4,0 2.7e-4,-2.8e-4 2.5e-4,-7.6e-4 5.2e-4,-10e-4 0.0479,-0.0484 0.0776,-0.11474 0.0775,-0.18862 v -0.017 c -1.3e-4,-0.0739 -0.0299,-0.1403 -0.078,-0.18862 -2.7e-4,-2.7e-4 -2.4e-4,-7.6e-4 -5.2e-4,-10e-4 0,0 -5.1e-4,0 -5.1e-4,0 -2.8e-4,-2.7e-4 -7.6e-4,-2.5e-4 -0.001,-5.2e-4 -0.0485,-0.0477 -0.11492,-0.0776 -0.18862,-0.0775 z"
       style="fill:#121b7d"
       id="path11272" /><path
       d="m 108.85996,137.20945 c -0.9991,0.004 -2.09751,0.0163 -2.97863,0.0103 -8.214989,-0.0514 -14.303624,-0.032 -19.483566,0.0176 0.0055,0.11422 0.0031,0.2334 0.0098,0.34675 0.03942,0.66255 0.100804,1.30977 0.190169,1.93477 0.625,-0.12313 1.274952,-0.20874 1.942517,-0.26355 0.667566,-0.0548 1.352753,-0.0788 2.049488,-0.0786 1.393478,5.6e-4 2.831596,0.0977 4.261755,0.23875 2.860307,0.28203 5.687527,0.73901 8.053767,0.94464 1.18312,0.10281 2.25079,0.14246 3.1502,0.0667 0.44971,-0.0379 0.8577,-0.10469 1.21646,-0.20722 0.35875,-0.10253 0.66849,-0.24073 0.92294,-0.42116 0.25445,-0.18043 0.45335,-0.40275 0.59015,-0.67438 0.13681,-0.27163 0.21124,-0.5923 0.21704,-0.96842 0.004,-0.27339 -0.0711,-0.61151 -0.14211,-0.94619 z"
       style="fill:#2a43b1"
       id="path10836" /><path
       d="m 128.87631,140.21908 c 0.004,-0.0362 -0.008,-0.066 -0.002,-0.10283 0.0367,-0.22678 0.10427,-0.427 0.20257,-0.601 0.0983,-0.174 0.22713,-0.32167 0.38706,-0.44287 0.15992,-0.12119 0.351,-0.21584 0.57257,-0.28422 0.22157,-0.0684 0.47383,-0.11056 0.75706,-0.12609 0.0941,-0.21266 0.15898,-0.43071 0.1943,-0.65422 0.0353,-0.22351 0.0411,-0.45247 0.0176,-0.68678 -3.24636,-0.0772 -6.49315,-0.12561 -9.73997,-0.14573 -1.31957,-0.008 -2.63928,0.009 -3.95893,0.0103 -0.1198,0.37224 -0.23483,0.74029 -0.27699,1.04955 -0.0546,0.40076 -0.0462,0.7504 0.0196,1.05471 0.0658,0.30431 0.18908,0.56303 0.36432,0.78135 0.17523,0.21832 0.40236,0.39621 0.67593,0.53899 0.27356,0.14279 0.59362,0.25043 0.95446,0.32814 0.36084,0.0777 0.76236,0.12578 1.19941,0.14883 0.43705,0.023 0.90962,0.0211 1.4118,0 1.00436,-0.0422 2.12786,-0.16218 3.32641,-0.31833 1.19855,-0.15615 2.47231,-0.34837 3.77652,-0.53485 0.039,-0.006 0.0793,-0.009 0.11834,-0.015 z"
       style="fill:#2a43b1"
       id="path10834" /><path
       d="m 136.55594,137.30608 -5.55057,0.015 c 0.0235,0.23431 0.0178,0.46327 -0.0176,0.68678 -0.0353,0.22351 -0.10021,0.44156 -0.1943,0.65422 0.37216,0.0645 0.68611,0.16539 0.94206,0.30231 0.25596,0.13692 0.45402,0.30997 0.59376,0.51935 0.0545,0.0816 0.0588,0.19466 0.0956,0.28732 0.0981,-0.0104 0.19558,-0.0273 0.29352,-0.0372 1.32136,-0.13318 2.62935,-0.21872 3.87935,-0.21497 0.0171,-0.71224 -0.0224,-1.47033 -0.0419,-2.21279 z"
       style="fill:#2e51bc"
       id="path10830" /><path
       d="m 132.42493,139.77105 c -0.0368,-0.0927 -0.0411,-0.20568 -0.0956,-0.28732 -0.13974,-0.20938 -0.3378,-0.38243 -0.59376,-0.51935 -0.25595,-0.13692 -0.5699,-0.23785 -0.94206,-0.30231 -0.28323,0.0155 -0.53549,0.0577 -0.75706,0.12609 -0.22157,0.0684 -0.41265,0.16303 -0.57257,0.28422 -0.15993,0.1212 -0.28876,0.26887 -0.38706,0.44287 -0.0983,0.174 -0.16587,0.37422 -0.20257,0.601 -0.006,0.0368 0.006,0.0666 0.002,0.10283 1.17019,-0.16674 2.36309,-0.32261 3.54862,-0.44803 z"
       style="fill:#ffffff"
       id="path10832" /></g></svg>
