<?xml version="1.0" encoding="UTF-8" standalone="no"?>
<!-- Uploaded to: SVG Repo, www.svgrepo.com, Generator: SVG Repo Mixer Tools, https://www.svgrepo.com/svg/525539/star -->

<svg
   width="1975.641"
   height="1200"
   viewBox="0 0 59.26923 36"
   fill="none"
   version="1.1"
   id="svg1"
   xml:space="preserve"
   sodipodi:docname="stars.svg"
   inkscape:version="1.3 (0e150ed6c4, 2023-07-21)"
   xmlns:inkscape="http://www.inkscape.org/namespaces/inkscape"
   xmlns:sodipodi="http://sodipodi.sourceforge.net/DTD/sodipodi-0.dtd"
   xmlns="http://www.w3.org/2000/svg"
   xmlns:svg="http://www.w3.org/2000/svg"><sodipodi:namedview
     id="namedview1"
     pagecolor="#ffffff"
     bordercolor="#000000"
     borderopacity="0.25"
     inkscape:showpageshadow="2"
     inkscape:pageopacity="0.0"
     inkscape:pagecheckerboard="0"
     inkscape:deskcolor="#d1d1d1"
     inkscape:zoom="0.4938632"
     inkscape:cx="935.48173"
     inkscape:cy="829.17698"
     inkscape:window-width="2560"
     inkscape:window-height="1369"
     inkscape:window-x="1912"
     inkscape:window-y="-8"
     inkscape:window-maximized="1"
     inkscape:current-layer="svg1" /><defs
     id="defs1" /><path
     d="m 14.696148,18.054297 c 0.122327,-0.219446 0.183489,-0.329169 0.274937,-0.329169 0.09145,0 0.15261,0.109722 0.274934,0.329168 l 0.03165,0.05678 c 0.03477,0.06236 0.05214,0.09354 0.07925,0.114112 0.0271,0.02057 0.06084,0.02821 0.12835,0.04348 l 0.06145,0.01391 c 0.237539,0.05375 0.356318,0.08062 0.384577,0.17149 0.02826,0.09087 -0.05271,0.18556 -0.21466,0.374926 l -0.0419,0.04899 c -0.04601,0.05381 -0.06904,0.08072 -0.07938,0.114008 -0.01037,0.03329 -0.0068,0.06919 8.7e-5,0.140992 l 0.0063,0.06536 c 0.02448,0.252662 0.03673,0.378994 -0.03725,0.435153 -0.07398,0.05616 -0.185194,0.005 -0.407609,-0.09744 l -0.05755,-0.0265 c -0.0632,-0.0291 -0.0948,-0.04365 -0.128302,-0.04365 -0.03351,0 -0.0651,0.01455 -0.128301,0.04365 l -0.05755,0.0265 c -0.222417,0.102398 -0.333625,0.153604 -0.407606,0.09744 -0.07398,-0.05616 -0.06174,-0.182491 -0.03725,-0.435153 l 0.0063,-0.06536 c 0.0069,-0.0718 0.01043,-0.107701 8.5e-5,-0.140992 -0.01037,-0.03329 -0.03336,-0.0602 -0.07938,-0.114008 l -0.0419,-0.04899 c -0.161944,-0.189366 -0.242916,-0.28406 -0.214658,-0.374926 0.02826,-0.09087 0.147032,-0.117742 0.384579,-0.17149 l 0.06146,-0.01391 c 0.0675,-0.01528 0.101257,-0.02291 0.128355,-0.04348 0.0271,-0.02058 0.04448,-0.05175 0.07924,-0.114112 z"
     fill="#ffdd4a"
     id="path11"
     style="stroke-width:0.0965762" /><path
     d="m 6.4655125,28.740189 c 0.176728,-0.317037 0.26509,-0.475555 0.397205,-0.475555 0.132119,0 0.220478,0.158517 0.397202,0.475554 l 0.04573,0.08203 c 0.05023,0.0901 0.07532,0.135135 0.114499,0.16486 0.03915,0.02972 0.0879,0.04076 0.185428,0.06282 l 0.08878,0.0201 c 0.343177,0.07765 0.5147783,0.116473 0.5556059,0.247754 0.040826,0.131283 -0.076149,0.268081 -0.3101229,0.541661 l -0.06054,0.07077 c -0.06648,0.07773 -0.09975,0.11661 -0.114677,0.16471 -0.01498,0.04809 -0.0099,0.09996 1.26e-4,0.203694 l 0.009,0.09443 c 0.03537,0.365025 0.05306,0.547538 -0.05383,0.628672 -0.10688,0.08114 -0.267553,0.0073 -0.58888,-0.140774 l -0.08313,-0.03828 c -0.09132,-0.04205 -0.13696,-0.06307 -0.18536,-0.06307 -0.04842,0 -0.09405,0.02102 -0.185358,0.06307 l -0.08313,0.03828 c -0.321328,0.147936 -0.481992,0.221914 -0.588874,0.140774 -0.10688,-0.08114 -0.0892,-0.263647 -0.05383,-0.628672 l 0.009,-0.09443 c 0.01003,-0.103736 0.01507,-0.155598 1.22e-4,-0.203694 -0.01497,-0.04809 -0.0482,-0.08697 -0.114676,-0.16471 l -0.06054,-0.07077 c -0.233962,-0.27358 -0.350945,-0.410385 -0.31012,-0.541661 0.04083,-0.131283 0.212419,-0.170103 0.555607,-0.247754 l 0.08879,-0.0201 c 0.09753,-0.02208 0.146287,-0.0331 0.185437,-0.06282 0.03915,-0.02973 0.06425,-0.07476 0.114485,-0.16486 z"
     fill="#ffdd4a"
     id="path12"
     style="stroke-width:0.139526" /><path
     d="m 4.6402915,32.250602 c 0.122327,-0.219446 0.183489,-0.329169 0.274937,-0.329169 0.09145,0 0.15261,0.109722 0.274934,0.329168 l 0.03165,0.05678 c 0.03477,0.06236 0.05214,0.09354 0.07925,0.114112 0.0271,0.02057 0.06084,0.02821 0.12835,0.04348 l 0.06145,0.01391 c 0.237539,0.05375 0.356318,0.08062 0.384577,0.17149 0.02826,0.09087 -0.05271,0.18556 -0.21466,0.374926 l -0.0419,0.04899 c -0.04601,0.05381 -0.06904,0.08072 -0.07938,0.114008 -0.01037,0.03329 -0.0068,0.06919 8.7e-5,0.140992 l 0.0063,0.06536 c 0.02448,0.252662 0.03673,0.378994 -0.03725,0.435153 -0.07398,0.05616 -0.185194,0.005 -0.407609,-0.09744 l -0.05755,-0.0265 c -0.0632,-0.0291 -0.0948,-0.04365 -0.128302,-0.04365 -0.03351,0 -0.0651,0.01455 -0.128301,0.04365 l -0.05755,0.0265 c -0.222417,0.102398 -0.333625,0.153604 -0.407606,0.09744 -0.07398,-0.05616 -0.06174,-0.182491 -0.03725,-0.435153 l 0.0063,-0.06536 c 0.0069,-0.0718 0.01043,-0.107701 8.5e-5,-0.140992 -0.01037,-0.03329 -0.03336,-0.0602 -0.07938,-0.114008 l -0.0419,-0.04899 c -0.161944,-0.189366 -0.242916,-0.28406 -0.214658,-0.374926 0.02826,-0.09087 0.147032,-0.117742 0.384579,-0.17149 l 0.06146,-0.01391 c 0.0675,-0.01528 0.101257,-0.02291 0.128355,-0.04348 0.0271,-0.02058 0.04448,-0.05175 0.07924,-0.114112 z"
     fill="#ffdd4a"
     id="path13"
     style="stroke-width:0.0965762" /><path
     d="m 56.701696,30.062551 c 0.117958,-0.211607 0.176935,-0.317411 0.265116,-0.317411 0.08818,0 0.147159,0.105803 0.265113,0.31741 l 0.03052,0.05475 c 0.03353,0.06013 0.05028,0.0902 0.07642,0.110036 0.02613,0.01984 0.05867,0.0272 0.123765,0.04193 l 0.05927,0.01341 c 0.229053,0.05183 0.343589,0.07774 0.370838,0.165365 0.02725,0.08762 -0.05083,0.17893 -0.206992,0.361532 l -0.0404,0.04724 c -0.04438,0.05189 -0.06657,0.07784 -0.07655,0.109936 -0.01,0.0321 -0.0066,0.06672 8.4e-5,0.135955 l 0.0061,0.06303 c 0.02361,0.243638 0.03542,0.365456 -0.03592,0.419609 -0.07134,0.05415 -0.178579,0.0048 -0.393049,-0.09396 l -0.05548,-0.02555 c -0.06094,-0.02806 -0.09141,-0.04209 -0.123719,-0.04209 -0.03231,0 -0.06278,0.01403 -0.123718,0.04209 l -0.05549,0.02555 c -0.214472,0.09874 -0.321707,0.148117 -0.393045,0.09396 -0.07134,-0.05415 -0.05953,-0.175971 -0.03592,-0.419609 l 0.0061,-0.06303 c 0.0067,-0.06924 0.01006,-0.103854 8.2e-5,-0.135955 -0.01,-0.0321 -0.03217,-0.05805 -0.07654,-0.109936 l -0.0404,-0.04724 c -0.156159,-0.182602 -0.234239,-0.273913 -0.206991,-0.361532 0.02725,-0.08762 0.14178,-0.113537 0.370841,-0.165365 l 0.05926,-0.01341 c 0.06509,-0.01473 0.09764,-0.02209 0.12377,-0.04193 0.02613,-0.01984 0.04289,-0.0499 0.07641,-0.110036 z"
     fill="#ffdd4a"
     id="path14"
     style="stroke-width:0.0931264" /><path
     d="m 54.231296,9.0032428 c 0.09611,-0.172413 0.144163,-0.258619 0.216011,-0.258619 0.07185,0 0.119901,0.0862 0.216008,0.258618 l 0.02486,0.04461 c 0.02732,0.04899 0.04097,0.07349 0.06227,0.08966 0.02129,0.01617 0.0478,0.02216 0.100841,0.03416 l 0.04829,0.01093 c 0.186628,0.04223 0.27995,0.06334 0.302152,0.134736 0.0222,0.07139 -0.04141,0.145788 -0.168653,0.294568 l -0.03292,0.03849 c -0.03616,0.04228 -0.05424,0.06341 -0.06237,0.08957 -0.0081,0.02616 -0.0054,0.05436 6.8e-5,0.110774 l 0.005,0.05136 c 0.01924,0.1985102 0.02886,0.2977662 -0.02927,0.3418882 -0.05813,0.04412 -0.145502,0.0039 -0.320248,-0.07656 l -0.04521,-0.02082 c -0.04965,-0.02286 -0.07448,-0.03429 -0.100803,-0.03429 -0.02632,0 -0.05115,0.01143 -0.100804,0.03429 l -0.04521,0.02082 c -0.174747,0.08045 -0.26212,0.120683 -0.320244,0.07656 -0.05812,-0.04412 -0.04851,-0.143378 -0.02927,-0.3418882 l 0.005,-0.05136 c 0.0055,-0.05642 0.0082,-0.08462 6.7e-5,-0.110774 -0.0081,-0.02615 -0.02621,-0.0473 -0.06237,-0.08957 l -0.03292,-0.03849 c -0.127235,-0.14878 -0.190853,-0.223177 -0.168652,-0.294568 0.0222,-0.07139 0.115519,-0.09251 0.302153,-0.134736 l 0.04828,-0.01093 c 0.05304,-0.012 0.07955,-0.018 0.100845,-0.03416 0.02129,-0.01617 0.03495,-0.04066 0.06226,-0.08966 z"
     fill="#ffdd4a"
     id="path15"
     style="stroke-width:0.0758774" /><path
     d="m 1.7613905,4.7380344 c 0.122327,-0.219446 0.183489,-0.329169 0.274937,-0.329169 0.09145,0 0.15261,0.109721 0.274934,0.329168 l 0.03165,0.05678 c 0.03477,0.06236 0.05214,0.09354 0.07925,0.114111 0.0271,0.02057 0.06084,0.02821 0.12835,0.04348 l 0.06145,0.01391 c 0.237539,0.05375 0.356318,0.08062 0.384577,0.171489 0.02826,0.09087 -0.05271,0.185561 -0.21466,0.374927 l -0.0419,0.04899 c -0.04601,0.05381 -0.06904,0.08072 -0.07938,0.114009 -0.01037,0.03329 -0.0068,0.06919 8.7e-5,0.140992 l 0.0063,0.06536 c 0.02448,0.252661 0.03673,0.378994 -0.03725,0.435153 -0.07398,0.05616 -0.185194,0.005 -0.407609,-0.09744 l -0.05755,-0.0265 c -0.0632,-0.0291 -0.0948,-0.04365 -0.128302,-0.04365 -0.03351,0 -0.0651,0.01455 -0.128301,0.04365 l -0.05755,0.0265 c -0.222417,0.102399 -0.333625,0.153605 -0.407606,0.09744 -0.07398,-0.05616 -0.06174,-0.182492 -0.03725,-0.435153 l 0.0063,-0.06536 c 0.0069,-0.0718 0.01043,-0.107701 8.5e-5,-0.140992 -0.01037,-0.03329 -0.03336,-0.0602 -0.07938,-0.114008 l -0.0419,-0.04899 c -0.161944,-0.189366 -0.242916,-0.28406 -0.214658,-0.374926 0.02826,-0.09087 0.147032,-0.117742 0.384579,-0.17149 l 0.06146,-0.01391 c 0.0675,-0.01528 0.101257,-0.02291 0.128355,-0.04348 0.0271,-0.02058 0.04448,-0.05175 0.07924,-0.114112 z"
     fill="#ffdd4a"
     id="path17"
     style="stroke-width:0.0965762" /><path
     d="m 56.931279,4.1488186 c 0.09611,-0.172412 0.144163,-0.258619 0.216011,-0.258619 0.07185,0 0.119902,0.0862 0.216008,0.258618 l 0.02486,0.04461 c 0.02732,0.04899 0.04097,0.07349 0.06227,0.08966 0.02129,0.01617 0.0478,0.02216 0.100841,0.03416 l 0.04829,0.01093 c 0.186629,0.04223 0.27995,0.06334 0.302152,0.134736 0.0222,0.07139 -0.04141,0.145788 -0.168653,0.294567 l -0.03291,0.03849 c -0.03616,0.04228 -0.05424,0.06341 -0.06237,0.08957 -0.0081,0.02616 -0.0054,0.05436 6.9e-5,0.110773 l 0.005,0.05136 c 0.01923,0.19851 0.02886,0.297765 -0.02927,0.341887 -0.05813,0.04412 -0.145503,0.0039 -0.320249,-0.07656 l -0.04521,-0.02082 c -0.04965,-0.02286 -0.07448,-0.03429 -0.100803,-0.03429 -0.02632,0 -0.05115,0.01143 -0.100803,0.03429 l -0.04521,0.02082 c -0.174747,0.08045 -0.26212,0.120683 -0.320245,0.07656 -0.05812,-0.04412 -0.04851,-0.143377 -0.02927,-0.341887 l 0.005,-0.05136 c 0.0055,-0.05642 0.0082,-0.08462 6.7e-5,-0.110773 -0.0081,-0.02615 -0.02621,-0.0473 -0.06237,-0.08957 l -0.03292,-0.03849 c -0.127235,-0.14878 -0.190853,-0.223178 -0.168651,-0.294568 0.0222,-0.07139 0.115519,-0.09251 0.302153,-0.134736 l 0.04828,-0.01093 c 0.05304,-0.012 0.07955,-0.018 0.100845,-0.03416 0.02129,-0.01617 0.03495,-0.04066 0.06226,-0.08966 z"
     fill="#ffdd4a"
     id="path20"
     style="stroke-width:0.0758774" /><path
     d="m 50.756796,31.202428 c 0.09611,-0.172413 0.144163,-0.258619 0.216011,-0.258619 0.07185,0 0.119901,0.0862 0.216008,0.258618 l 0.02486,0.04461 c 0.02732,0.04899 0.04097,0.07349 0.06227,0.08966 0.02129,0.01617 0.0478,0.02216 0.100841,0.03416 l 0.04829,0.01093 c 0.186628,0.04223 0.27995,0.06334 0.302152,0.134736 0.0222,0.07139 -0.04141,0.145788 -0.168653,0.294568 l -0.03292,0.03849 c -0.03616,0.04228 -0.05424,0.06341 -0.06237,0.08957 -0.0081,0.02616 -0.0054,0.05436 6.8e-5,0.110774 l 0.005,0.05136 c 0.01924,0.19851 0.02886,0.297766 -0.02927,0.341888 -0.05813,0.04412 -0.145502,0.0039 -0.320248,-0.07656 l -0.04521,-0.02082 c -0.04965,-0.02286 -0.07448,-0.03429 -0.100803,-0.03429 -0.02632,0 -0.05115,0.01143 -0.100804,0.03429 l -0.04521,0.02082 c -0.174747,0.08045 -0.26212,0.120683 -0.320244,0.07656 -0.05812,-0.04412 -0.04851,-0.143378 -0.02927,-0.341888 l 0.005,-0.05136 c 0.0055,-0.05642 0.0082,-0.08462 6.7e-5,-0.110774 -0.0081,-0.02615 -0.02621,-0.0473 -0.06237,-0.08957 l -0.03292,-0.03849 c -0.127235,-0.14878 -0.190853,-0.223177 -0.168652,-0.294568 0.0222,-0.07139 0.115519,-0.09251 0.302153,-0.134736 l 0.04828,-0.01093 c 0.05304,-0.012 0.07955,-0.018 0.100845,-0.03416 0.02129,-0.01617 0.03495,-0.04066 0.06226,-0.08966 z"
     fill="#ffdd4a"
     id="path21"
     style="stroke-width:0.0758774" /><path
     d="m 9.5760427,27.507503 c 0.128881,-0.231204 0.19332,-0.346806 0.289668,-0.346806 0.09635,0 0.1607873,0.115601 0.2896653,0.346805 l 0.03335,0.05982 c 0.03663,0.0657 0.05493,0.09855 0.0835,0.120227 0.02855,0.02167 0.0641,0.02972 0.135227,0.04581 l 0.06474,0.01466 c 0.250267,0.05663 0.37541,0.08494 0.405184,0.180678 0.02977,0.09574 -0.05553,0.195503 -0.226162,0.395015 l -0.04415,0.05161 c -0.04848,0.05669 -0.07274,0.08504 -0.08363,0.120117 -0.01093,0.03507 -0.0072,0.0729 9.2e-5,0.148547 l 0.0066,0.06886 c 0.02579,0.2662 0.0387,0.399301 -0.03925,0.458469 -0.07794,0.05917 -0.195117,0.0053 -0.42945,-0.102661 l -0.06063,-0.02792 c -0.06659,-0.03066 -0.09988,-0.04599 -0.1351773,-0.04599 -0.03531,0 -0.06859,0.01533 -0.135175,0.04599 l -0.06063,0.02792 c -0.234334,0.107884 -0.351501,0.161834 -0.429446,0.102661 -0.07794,-0.05917 -0.06505,-0.192269 -0.03925,-0.458469 l 0.0066,-0.06886 c 0.0073,-0.07565 0.01099,-0.113472 8.9e-5,-0.148547 -0.01092,-0.03507 -0.03515,-0.06343 -0.08363,-0.120117 l -0.04415,-0.05161 c -0.170621,-0.199512 -0.255932,-0.29928 -0.22616,-0.395015 0.02977,-0.09574 0.15491,-0.12405 0.405185,-0.180678 l 0.06475,-0.01466 c 0.07112,-0.0161 0.106682,-0.02414 0.135232,-0.04581 0.02855,-0.02168 0.04686,-0.05452 0.08349,-0.120227 z"
     fill="#ffdd4a"
     id="path25"
     style="stroke-width:0.101751" /><path
     d="m 16.714968,22.306704 c 0.122327,-0.219446 0.183489,-0.329169 0.274937,-0.329169 0.09145,0 0.15261,0.109722 0.274934,0.329168 l 0.03165,0.05678 c 0.03477,0.06236 0.05214,0.09354 0.07925,0.114112 0.0271,0.02057 0.06084,0.02821 0.12835,0.04348 l 0.06145,0.01391 c 0.237539,0.05375 0.356318,0.08062 0.384577,0.17149 0.02826,0.09087 -0.05271,0.18556 -0.21466,0.374926 l -0.0419,0.04899 c -0.04601,0.05381 -0.06904,0.08072 -0.07938,0.114008 -0.01037,0.03329 -0.0068,0.06919 8.7e-5,0.140992 l 0.0063,0.06536 c 0.02448,0.252662 0.03673,0.378994 -0.03725,0.435153 -0.07398,0.05616 -0.185194,0.005 -0.407609,-0.09744 l -0.05755,-0.0265 c -0.0632,-0.0291 -0.0948,-0.04365 -0.128302,-0.04365 -0.03351,0 -0.0651,0.01455 -0.128301,0.04365 l -0.05755,0.0265 c -0.222417,0.102398 -0.333625,0.153604 -0.407606,0.09744 -0.07398,-0.05616 -0.06174,-0.182491 -0.03725,-0.435153 l 0.0063,-0.06536 c 0.0069,-0.0718 0.01043,-0.107701 8.5e-5,-0.140992 -0.01037,-0.03329 -0.03336,-0.0602 -0.07938,-0.114008 l -0.0419,-0.04899 c -0.161944,-0.189366 -0.242916,-0.28406 -0.214658,-0.374926 0.02826,-0.09087 0.147032,-0.117742 0.384579,-0.17149 l 0.06146,-0.01391 c 0.0675,-0.01528 0.101257,-0.02291 0.128355,-0.04348 0.0271,-0.02058 0.04448,-0.05175 0.07924,-0.114112 z"
     fill="#ffdd4a"
     id="path9"
     style="stroke-width:0.0965762" /><path
     d="m 17.57404,27.547043 c 0.122327,-0.219446 0.183489,-0.329169 0.274937,-0.329169 0.09145,0 0.15261,0.109722 0.274934,0.329168 l 0.03165,0.05678 c 0.03477,0.06236 0.05214,0.09354 0.07925,0.114112 0.0271,0.02057 0.06084,0.02821 0.12835,0.04348 l 0.06145,0.01391 c 0.237539,0.05375 0.356318,0.08062 0.384577,0.17149 0.02826,0.09087 -0.05271,0.18556 -0.21466,0.374926 l -0.0419,0.04899 c -0.04601,0.05381 -0.06904,0.08072 -0.07938,0.114008 -0.01037,0.03329 -0.0068,0.06919 8.7e-5,0.140992 l 0.0063,0.06536 c 0.02448,0.252662 0.03673,0.378994 -0.03725,0.435153 -0.07398,0.05616 -0.185194,0.005 -0.407609,-0.09744 l -0.05755,-0.0265 c -0.0632,-0.0291 -0.0948,-0.04365 -0.128302,-0.04365 -0.03351,0 -0.0651,0.01455 -0.128301,0.04365 l -0.05755,0.0265 c -0.222417,0.102398 -0.333625,0.153604 -0.407606,0.09744 -0.07398,-0.05616 -0.06174,-0.182491 -0.03725,-0.435153 l 0.0063,-0.06536 c 0.0069,-0.0718 0.01043,-0.107701 8.5e-5,-0.140992 -0.01037,-0.03329 -0.03336,-0.0602 -0.07938,-0.114008 l -0.0419,-0.04899 c -0.161944,-0.189366 -0.242916,-0.28406 -0.214658,-0.374926 0.02826,-0.09087 0.147032,-0.117742 0.384579,-0.17149 l 0.06146,-0.01391 c 0.0675,-0.01528 0.101257,-0.02291 0.128355,-0.04348 0.0271,-0.02058 0.04448,-0.05175 0.07924,-0.114112 z"
     fill="#ffdd4a"
     id="path10"
     style="stroke-width:0.0965762" /></svg>
