<?xml version="1.0" encoding="UTF-8" standalone="no"?>
<!-- Uploaded to: SVG Repo, www.svgrepo.com, Generator: SVG Repo Mixer Tools, https://www.svgrepo.com/svg/525539/star -->

<svg
   width="8837.1621"
   height="10791.004"
   viewBox="0 0 265.11486 323.73012"
   fill="none"
   version="1.1"
   id="svg1"
   xml:space="preserve"
   xmlns="http://www.w3.org/2000/svg"
   xmlns:svg="http://www.w3.org/2000/svg"><defs
     id="defs1" /><g
     id="g8"><path
       d="m 81.710451,307.13851 c 1.26664,-2.27225 1.89994,-3.40838 2.84684,-3.40838 0.9469,0 1.5802,1.13612 2.8468,3.40837 l 0.3277,0.58786 c 0.36,0.6457 0.5399,0.96856 0.8206,1.18158 0.2806,0.21302 0.63,0.29209 1.329,0.45024 l 0.6364,0.14398 c 2.4596,0.55653 3.6895,0.83479 3.9821,1.7757 0.2926,0.94087 -0.5458,1.92137 -2.2227,3.88217 l -0.4338,0.5073 c -0.4765,0.5572 -0.7148,0.8358 -0.822,1.1805 -0.1071,0.3447 -0.0711,0.7164 9e-4,1.4599 l 0.0656,0.6768 c 0.2535,2.6162 0.3803,3.9243 -0.3857,4.5058 -0.7661,0.5815 -1.9176,0.0513 -4.2206,-1.009 l -0.5958,-0.2744 c -0.6544,-0.3013 -0.9816,-0.452 -1.3285,-0.452 -0.3469,0 -0.6741,0.1507 -1.3285,0.452 l -0.5958,0.2744 c -2.30302,1.0603 -3.45452,1.5905 -4.22055,1.009 -0.76603,-0.5815 -0.63927,-1.8896 -0.38575,-4.5058 l 0.06558,-0.6768 c 0.07205,-0.7435 0.10807,-1.1152 8.8e-4,-1.4599 -0.10718,-0.3447 -0.34543,-0.6233 -0.82194,-1.1805 l -0.43382,-0.5073 c -1.67685,-1.9608 -2.51528,-2.9413 -2.22268,-3.88217 0.2926,-0.94091 1.52244,-1.21917 3.98212,-1.7757 l 0.63635,-0.14398 c 0.69896,-0.15815 1.04844,-0.23722 1.32905,-0.45024 0.28061,-0.21302 0.46059,-0.53587 0.82053,-1.18158 z"
       fill="#ffdd4a"
       id="path4" /><path
       d="m 195.99373,259.82311 c 1.26664,-2.27225 1.89994,-3.40838 2.84684,-3.40838 0.9469,0 1.5802,1.13612 2.8468,3.40837 l 0.3277,0.58786 c 0.36,0.6457 0.5399,0.96856 0.8206,1.18158 0.2806,0.21302 0.63,0.29209 1.329,0.45024 l 0.6364,0.14398 c 2.4596,0.55653 3.6895,0.83479 3.9821,1.7757 0.2926,0.94087 -0.5458,1.92137 -2.2227,3.88217 l -0.4338,0.5073 c -0.4765,0.5572 -0.7148,0.8358 -0.822,1.1805 -0.1071,0.3447 -0.0711,0.7164 9e-4,1.4599 l 0.0656,0.6768 c 0.2535,2.6162 0.3803,3.9243 -0.3857,4.5058 -0.7661,0.5815 -1.9176,0.0513 -4.2206,-1.009 l -0.5958,-0.2744 c -0.6544,-0.3013 -0.9816,-0.452 -1.3285,-0.452 -0.3469,0 -0.6741,0.1507 -1.3285,0.452 l -0.5958,0.2744 c -2.30302,1.0603 -3.45452,1.5905 -4.22055,1.009 -0.76603,-0.5815 -0.63927,-1.8896 -0.38575,-4.5058 l 0.0656,-0.6768 c 0.072,-0.7435 0.10807,-1.1152 8.8e-4,-1.4599 -0.10718,-0.3447 -0.34543,-0.6233 -0.82194,-1.1805 l -0.43382,-0.5073 c -1.67685,-1.9608 -2.51528,-2.9413 -2.22268,-3.88217 0.2926,-0.94091 1.52244,-1.21917 3.98212,-1.7757 l 0.63635,-0.14398 c 0.69896,-0.15815 1.04844,-0.23722 1.32905,-0.45024 0.28061,-0.21302 0.46059,-0.53587 0.82053,-1.18158 z"
       fill="#ffdd4a"
       id="path6" /><path
       d="m 252.26799,116.01692 c 1.26664,-2.27225 1.89994,-3.40838 2.84684,-3.40838 0.9469,0 1.5802,1.13612 2.8468,3.40837 l 0.3277,0.58786 c 0.36,0.6457 0.5399,0.96856 0.8206,1.18158 0.2806,0.21302 0.63,0.29209 1.329,0.45024 l 0.6364,0.14398 c 2.4596,0.55653 3.6895,0.83479 3.9821,1.7757 0.2926,0.94087 -0.5458,1.92137 -2.2227,3.88217 l -0.4338,0.5073 c -0.4765,0.5572 -0.7148,0.8358 -0.822,1.1805 -0.1071,0.3447 -0.0711,0.7164 9e-4,1.4599 l 0.0656,0.6768 c 0.2535,2.6162 0.3803,3.9243 -0.3857,4.5058 -0.7661,0.5815 -1.9176,0.0513 -4.2206,-1.009 l -0.5958,-0.2744 c -0.6544,-0.3013 -0.9816,-0.452 -1.3285,-0.452 -0.3469,0 -0.6741,0.1507 -1.3285,0.452 l -0.5958,0.2744 c -2.30302,1.0603 -3.45452,1.5905 -4.22055,1.009 -0.76603,-0.5815 -0.63927,-1.8896 -0.38575,-4.5058 l 0.0656,-0.6768 c 0.072,-0.7435 0.10807,-1.1152 8.8e-4,-1.4599 -0.10718,-0.3447 -0.34543,-0.6233 -0.82194,-1.1805 l -0.43382,-0.5073 c -1.67685,-1.9608 -2.51528,-2.9413 -2.22268,-3.88217 0.2926,-0.94091 1.52244,-1.21917 3.98212,-1.7757 l 0.63635,-0.14398 c 0.69896,-0.15815 1.04844,-0.23722 1.32905,-0.45024 0.28061,-0.21302 0.46059,-0.53587 0.82053,-1.18158 z"
       fill="#ffdd4a"
       id="path7" /><path
       d="M 151.32563,3.40838 C 152.59227,1.13613 153.22557,0 154.17247,0 c 0.9469,0 1.5802,1.13612 2.8468,3.40837 l 0.3277,0.58786 c 0.36,0.6457 0.5399,0.96856 0.8206,1.18158 0.2806,0.21302 0.63,0.29209 1.329,0.45024 l 0.6364,0.14398 c 2.4596,0.55653 3.6895,0.83479 3.9821,1.7757 0.2926,0.94087 -0.5458,1.92137 -2.2227,3.88217 l -0.4338,0.5073 c -0.4765,0.5572 -0.7148,0.8358 -0.822,1.1805 -0.1071,0.3447 -0.0711,0.7164 9e-4,1.4599 l 0.0656,0.6768 c 0.2535,2.6162 0.3803,3.9243 -0.3857,4.5058 -0.7661,0.5815 -1.9176,0.0513 -4.2206,-1.009 l -0.5958,-0.2744 c -0.6544,-0.3013 -0.9816,-0.452 -1.3285,-0.452 -0.3469,0 -0.6741,0.1507 -1.3285,0.452 l -0.5958,0.2744 c -2.30302,1.0603 -3.45452,1.5905 -4.22055,1.009 -0.76603,-0.5815 -0.63927,-1.8896 -0.38575,-4.5058 l 0.0656,-0.6768 c 0.072,-0.7435 0.10807,-1.1152 8.8e-4,-1.4599 -0.10718,-0.3447 -0.34543,-0.6233 -0.82194,-1.1805 l -0.43382,-0.5073 c -1.67685,-1.9608 -2.51528,-2.9413 -2.22268,-3.88217 0.2926,-0.94091 1.52244,-1.21917 3.98212,-1.7757 l 0.63635,-0.14398 c 0.69896,-0.15815 1.04844,-0.23722 1.32905,-0.45024 0.28061,-0.21302 0.46059,-0.53587 0.82053,-1.18158 z"
       fill="#ffdd4a"
       id="path8" /><path
       d="m 78.316794,92.773958 c 1.26664,-2.27225 1.89994,-3.40838 2.84684,-3.40838 0.9469,0 1.5802,1.13612 2.8468,3.40837 l 0.3277,0.58786 c 0.36,0.6457 0.5399,0.96856 0.8206,1.18158 0.2806,0.21302 0.63,0.29209 1.329,0.45024 l 0.6364,0.14398 c 2.4596,0.55653 3.6895,0.83479 3.9821,1.7757 0.2926,0.94087 -0.5458,1.92137 -2.2227,3.882172 l -0.4338,0.5073 c -0.4765,0.5572 -0.7148,0.8358 -0.822,1.1805 -0.1071,0.3447 -0.0711,0.7164 9e-4,1.4599 l 0.0656,0.6768 c 0.2535,2.6162 0.3803,3.9243 -0.3857,4.5058 -0.7661,0.5815 -1.9176,0.0513 -4.2206,-1.009 l -0.5958,-0.2744 c -0.6544,-0.3013 -0.9816,-0.452 -1.3285,-0.452 -0.3469,0 -0.6741,0.1507 -1.3285,0.452 l -0.5958,0.2744 c -2.30302,1.0603 -3.45452,1.5905 -4.22055,1.009 -0.76603,-0.5815 -0.63927,-1.8896 -0.38575,-4.5058 l 0.06558,-0.6768 c 0.07205,-0.7435 0.10807,-1.1152 8.8e-4,-1.4599 -0.10718,-0.3447 -0.34543,-0.6233 -0.82194,-1.1805 l -0.43382,-0.5073 c -1.67685,-1.960802 -2.51528,-2.941302 -2.22268,-3.882172 0.2926,-0.94091 1.52244,-1.21917 3.98212,-1.7757 l 0.63635,-0.14398 c 0.69896,-0.15815 1.04844,-0.23722 1.32905,-0.45024 0.28061,-0.21302 0.46059,-0.53587 0.82053,-1.18158 z"
       fill="#ffdd4a"
       id="path3" /><path
       d="m 7.1531619,127.1958 c 1.26664,-2.27225 1.89994,-3.40838 2.8468401,-3.40838 0.9469,0 1.5802,1.13612 2.8468,3.40837 l 0.3277,0.58786 c 0.36,0.6457 0.5399,0.96856 0.8206,1.18158 0.2806,0.21302 0.63,0.29209 1.329,0.45024 l 0.6364,0.14398 c 2.4596,0.55653 3.6895,0.83479 3.9821,1.7757 0.2926,0.94087 -0.5458,1.92137 -2.2227,3.88217 l -0.4338,0.5073 c -0.4765,0.5572 -0.7148,0.8358 -0.822,1.1805 -0.1071,0.3447 -0.0711,0.7164 9e-4,1.4599 l 0.0656,0.6768 c 0.2535,2.6162 0.3803,3.9243 -0.3857,4.5058 -0.7661,0.5815 -1.9176,0.0513 -4.2206,-1.009 l -0.5958,-0.2744 c -0.6544,-0.3013 -0.9816,-0.452 -1.3285,-0.452 -0.3469001,0 -0.6741001,0.1507 -1.3285001,0.452 l -0.5958,0.2744 c -2.30302,1.0603 -3.45452,1.5905 -4.22055,1.009 -0.76603,-0.5815 -0.63927,-1.8896 -0.38575,-4.5058 l 0.06558,-0.6768 c 0.07205,-0.7435 0.10807,-1.1152 8.8e-4,-1.4599 -0.10718,-0.3447 -0.34543,-0.6233 -0.82194,-1.1805 l -0.43382,-0.5073 c -1.67685,-1.9608 -2.51528,-2.9413 -2.22268,-3.88217 0.2926,-0.94091 1.52244,-1.21917 3.98212,-1.7757 l 0.63635,-0.14398 c 0.69896,-0.15815 1.04844,-0.23722 1.32905,-0.45024 0.28061,-0.21302 0.46059,-0.53587 0.82053,-1.18158 z"
       fill="#ffdd4a"
       id="path1" /></g></svg>
