<?xml version="1.0" encoding="UTF-8" standalone="no"?>
<svg
   version="1.0"
   width="65.692368mm"
   height="62.836594mm"
   viewBox="0 0 65.692367 62.836593"
   id="svg1"
   xml:space="preserve"
   xmlns="http://www.w3.org/2000/svg"
   xmlns:svg="http://www.w3.org/2000/svg"><defs
     id="defs1" /><path
     d="m 13.887078,11.509214 c 0.012,6.772833 1.60645,13.648769 0.17519,20.35844 -0.96402,4.562713 -5.7671196,1.998734 -8.1633296,0.32096 -4.14461,-2.08551 -6.87772996,3.374478 -5.47832996,6.810233 0.56956,3.787402 4.88910996,5.582128 8.13852996,3.872501 3.5161096,-1.507933 6.9449496,1.548978 6.6372596,5.181443 0.28544,4.52404 -0.64578,9.00422 -1.30931,13.45651 5.36243,-0.5288 10.72708,0.9768 16.06797,0.24937 3.87057,-0.54826 2.76363,-5.01547 1.8627,-7.5601 -0.79249,-4.26467 4.22225,-6.903373 7.9044,-6.04249 4.19753,0.23384 4.63541,5.33012 2.13341,7.84236 -2.63001,2.94332 -0.037,6.75153 3.58547,6.56343 6.15923,0.69929 12.33066,-0.39849 18.44608,-1.05256 0.1664,-6.34101 2.32137,-12.58454 1.61231,-18.944067 -0.34308,-4.162712 -4.92074,-3.163853 -7.59024,-2.21227 -4.38569,0.494595 -6.63019,-4.883625 -5.47859,-8.51403 0.74912,-4.107094 5.72069,-3.620421 8.1227,-1.348571 2.88458,2.632272 5.5006,-0.444496 4.24231,-3.600069 -0.57613,-5.094067 -1.83783,-10.249879 -0.90848,-15.38097 -5.36257,0.470372 -10.58107,2.485418 -16.00154,2.118143 -3.87824,-0.34054 -2.89476,-4.8513905 -2.08102,-7.3784015 0.63533,-4.286953 -4.38197,-6.87902695 -8.09202,-6.04241095 -4.24787,0.254071 -4.42546,5.41741995 -1.88983,7.83922595 2.7998,2.7971225 -0.006,6.0302505 -3.42251,5.1526015 -6.19969,-0.201827 -12.29166,-1.853923 -18.51313,-1.689278 z"
     style="fill:#f7f5fb;fill-opacity:1;stroke:#000000;stroke-width:0.1"
     id="p6" /></svg>
